/* XPM */
static char * floor_xpm[] = {
"60 60 523 2",
"  	c #ABAC9B",
". 	c #A3A295",
"+ 	c #AEABA1",
"@ 	c #B2AEA4",
"# 	c #B2B0A5",
"$ 	c #AFAAA1",
"% 	c #A7A69A",
"& 	c #B1AEA5",
"* 	c #B1AFA5",
"= 	c #B2AFA5",
"- 	c #B0B2A2",
"; 	c #AAAD9B",
"> 	c #A8AA9A",
", 	c #A6A799",
"' 	c #B1B49F",
") 	c #A3A294",
"! 	c #A3A597",
"~ 	c #A5A799",
"{ 	c #A9AB9B",
"] 	c #A4A697",
"^ 	c #AEB19E",
"/ 	c #AEB09D",
"( 	c #A3A395",
"_ 	c #A3A192",
": 	c #A8A799",
"< 	c #ABAE9B",
"[ 	c #A9AA9A",
"} 	c #AFB39F",
"| 	c #ACAD9B",
"1 	c #A5A596",
"2 	c #A3A293",
"3 	c #B1B4A0",
"4 	c #A5A798",
"5 	c #A8AC9B",
"6 	c #A3A495",
"7 	c #A5A597",
"8 	c #A7A799",
"9 	c #ABAD9B",
"0 	c #B0B699",
"a 	c #AAAA9A",
"b 	c #B2B1A5",
"c 	c #B2B1A7",
"d 	c #B4B2A8",
"e 	c #A9A99D",
"f 	c #B3B1A8",
"g 	c #B3AFA6",
"h 	c #AFADA1",
"i 	c #A7A99A",
"j 	c #AFB29F",
"k 	c #AAAB9B",
"l 	c #B0B59F",
"m 	c #A4A698",
"n 	c #AAAC9B",
"o 	c #ABAF9C",
"p 	c #A6A698",
"q 	c #ACAF9C",
"r 	c #A9A99A",
"s 	c #AFB49F",
"t 	c #A6A899",
"u 	c #ADB19D",
"v 	c #ADAF9D",
"w 	c #B1B5A0",
"x 	c #A9AB9A",
"y 	c #ACAF9D",
"z 	c #ABAF9D",
"A 	c #A8AC95",
"B 	c #B2B1A4",
"C 	c #B4B2A9",
"D 	c #B3B1A7",
"E 	c #ABAB9D",
"F 	c #AEACA0",
"G 	c #ABAE9C",
"H 	c #B0B49F",
"I 	c #B1B59F",
"J 	c #B1B6A0",
"K 	c #AEB29E",
"L 	c #ABB09D",
"M 	c #ADB09D",
"N 	c #AAAF9D",
"O 	c #A9AC9B",
"P 	c #A7A899",
"Q 	c #AAAD9C",
"R 	c #AAB096",
"S 	c #B0B29F",
"T 	c #B4B7A4",
"U 	c #B2B2A5",
"V 	c #AFAA9F",
"W 	c #B1AEA2",
"X 	c #AFABA1",
"Y 	c #AEAFA0",
"Z 	c #A2A193",
"` 	c #AFB19D",
" .	c #AFB29E",
"..	c #A3A396",
"+.	c #A2A295",
"@.	c #A5A397",
"#.	c #A8AF95",
"$.	c #B2B7A1",
"%.	c #B2B4A2",
"&.	c #B3B4A5",
"*.	c #B2B4A0",
"=.	c #B1B0A2",
"-.	c #ABA79D",
";.	c #A9A59A",
">.	c #ABAA9D",
",.	c #B2B5A4",
"'.	c #AFB3A1",
").	c #B1B2A1",
"!.	c #AAAE9D",
"~.	c #A6A89A",
"{.	c #AAAF9C",
"].	c #AEB19D",
"^.	c #A1A193",
"/.	c #AAAB9A",
"(.	c #AAB396",
"_.	c #B2B7A2",
":.	c #B4B4A6",
"<.	c #B3B1A6",
"[.	c #B4B2A6",
"}.	c #ADAF9F",
"|.	c #ADAAA0",
"1.	c #AFADA3",
"2.	c #B2B2A7",
"3.	c #B2B1A6",
"4.	c #AEB09F",
"5.	c #A8A89A",
"6.	c #A7A697",
"7.	c #ADAD9F",
"8.	c #ACA99D",
"9.	c #B1AEA1",
"0.	c #B5B7A4",
"a.	c #A5A697",
"b.	c #A6A597",
"c.	c #ACB398",
"d.	c #A8A59A",
"e.	c #AFADA2",
"f.	c #A6A49A",
"g.	c #A7AA9A",
"h.	c #A5A698",
"i.	c #AFB29D",
"j.	c #A19F91",
"k.	c #B4B4A5",
"l.	c #AFB0A1",
"m.	c #A19F92",
"n.	c #A2A790",
"o.	c #B2B4A3",
"p.	c #B2B6A4",
"q.	c #B3B4A4",
"r.	c #B3B2A6",
"s.	c #AFAF9F",
"t.	c #A29E95",
"u.	c #B1B2A3",
"v.	c #B4B2A7",
"w.	c #A19E91",
"x.	c #A8AE95",
"y.	c #B2B4A1",
"z.	c #A9A89B",
"A.	c #A7A39A",
"B.	c #A9A99C",
"C.	c #AAAA9E",
"D.	c #ABAA9E",
"E.	c #A5A197",
"F.	c #A3A297",
"G.	c #B2B6A0",
"H.	c #A5A497",
"I.	c #ADB29D",
"J.	c #ADADA0",
"K.	c #A1A092",
"L.	c #A5A396",
"M.	c #B1B69F",
"N.	c #B1B39F",
"O.	c #A5A899",
"P.	c #ACB09D",
"Q.	c #A6A99A",
"R.	c #A4A598",
"S.	c #A9A89A",
"T.	c #A5A99A",
"U.	c #ABAA9C",
"V.	c #AFB1A0",
"W.	c #A7A59A",
"X.	c #ADB19F",
"Y.	c #AAA99C",
"Z.	c #A9AA9B",
"`.	c #A9AC9D",
" +	c #A9AA9C",
".+	c #AAAA9D",
"++	c #ADB29F",
"@+	c #AEB29F",
"#+	c #AAAC9C",
"$+	c #AFB19F",
"%+	c #AAB196",
"&+	c #A09D91",
"*+	c #A9A799",
"=+	c #A2A395",
"-+	c #A8A99A",
";+	c #ABAD9C",
">+	c #B2B0A6",
",+	c #B1ADA3",
"'+	c #ADADA1",
")+	c #B2B0A7",
"!+	c #B2AFA7",
"~+	c #B1B2A2",
"{+	c #B1B3A5",
"]+	c #B2B2A6",
"^+	c #AAA99D",
"/+	c #A1A38D",
"(+	c #A7A89A",
"_+	c #A29F93",
":+	c #A9AD9B",
"<+	c #ACAF9B",
"[+	c #A5A59A",
"}+	c #ABAA9F",
"|+	c #AAB09D",
"1+	c #B1B3A3",
"2+	c #A7AA94",
"3+	c #AFB1A1",
"4+	c #A29F95",
"5+	c #A7A49A",
"6+	c #AFB0A0",
"7+	c #B0B39F",
"8+	c #ADB1A0",
"9+	c #B0B2A0",
"0+	c #A2A294",
"a+	c #AEB29D",
"b+	c #B1AEA4",
"c+	c #B2AEA5",
"d+	c #AAA89D",
"e+	c #B0ADA4",
"f+	c #B2B2A4",
"g+	c #ACAD9E",
"h+	c #ADB398",
"i+	c #A4A294",
"j+	c #B0B4A0",
"k+	c #B4B4A7",
"l+	c #A9A79C",
"m+	c #ACB0A0",
"n+	c #B2B5A3",
"o+	c #AFACA3",
"p+	c #AAA79D",
"q+	c #AEAAA0",
"r+	c #ACA89E",
"s+	c #ADAA9F",
"t+	c #AFAAA0",
"u+	c #AAA69D",
"v+	c #B2B2A3",
"w+	c #AFAB9F",
"x+	c #A9A89C",
"y+	c #AAB397",
"z+	c #A7A597",
"A+	c #B1B3A2",
"B+	c #B4B8A4",
"C+	c #B1AEA3",
"D+	c #B0ADA2",
"E+	c #B2AFA4",
"F+	c #A4A399",
"G+	c #ACAA9F",
"H+	c #B1AFA3",
"I+	c #B0AFA2",
"J+	c #B2B1A3",
"K+	c #A8A79B",
"L+	c #AFAEA2",
"M+	c #B0B2A1",
"N+	c #A4A496",
"O+	c #B4B8A3",
"P+	c #B2B3A3",
"Q+	c #AAAE9E",
"R+	c #A3A496",
"S+	c #B5B2A9",
"T+	c #AFAEA1",
"U+	c #AFACA0",
"V+	c #AFACA2",
"W+	c #B2B89B",
"X+	c #ACAB9E",
"Y+	c #AEAC9F",
"Z+	c #B1B3A1",
"`+	c #AEAE9E",
" @	c #B2B3A2",
".@	c #A9A59B",
"+@	c #AAAD9D",
"@@	c #AFAFA1",
"#@	c #B0ADA1",
"$@	c #AEADA1",
"%@	c #B3B2A7",
"&@	c #ACAF9E",
"*@	c #A9AD94",
"=@	c #AEAFA1",
"-@	c #ADAC9F",
";@	c #AFB19E",
">@	c #AAAE9C",
",@	c #ADB09F",
"'@	c #B2B2A2",
")@	c #B4B3A6",
"!@	c #AFB2A1",
"~@	c #AAA79C",
"{@	c #B1ADA4",
"]@	c #B1B4A1",
"^@	c #B7B5A9",
"/@	c #B4B6A4",
"(@	c #A5A297",
"_@	c #A9A79A",
":@	c #ADB19E",
"<@	c #AAAB9C",
"[@	c #ADAE9E",
"}@	c #AEB0A0",
"|@	c #A9AE95",
"1@	c #B1B2A0",
"2@	c #B4B3A7",
"3@	c #A5A495",
"4@	c #A5A79A",
"5@	c #B2B8A1",
"6@	c #B7B7A6",
"7@	c #A8A39A",
"8@	c #A2A092",
"9@	c #B1B29F",
"0@	c #ACB498",
"a@	c #A19B93",
"b@	c #A39D95",
"c@	c #A9A49A",
"d@	c #AAA99B",
"e@	c #B4B6A5",
"f@	c #A8AA9B",
"g@	c #A7A698",
"h@	c #A2A192",
"i@	c #A3A790",
"j@	c #B2B6A3",
"k@	c #A6AC94",
"l@	c #B2B7A0",
"m@	c #B4B5A6",
"n@	c #B2B5A1",
"o@	c #B5B2A8",
"p@	c #ADB29E",
"q@	c #ABB397",
"r@	c #B0B4A2",
"s@	c #A5A89A",
"t@	c #ACAE9C",
"u@	c #A7AA9B",
"v@	c #A5A699",
"w@	c #AAAD9E",
"x@	c #A9AA9D",
"y@	c #ADAD9E",
"z@	c #A4A398",
"A@	c #A5A298",
"B@	c #B3B7A3",
"C@	c #AFB2A0",
"D@	c #AAA99A",
"E@	c #B1AFA2",
"F@	c #B2B5A2",
"G@	c #B3B5A4",
"H@	c #A1A48D",
"I@	c #A6A79A",
"J@	c #B3B5A5",
"K@	c #B4B7A5",
"L@	c #B3B3A5",
"M@	c #A7AB93",
"N@	c #B1B7A2",
"O@	c #B2B4A4",
"P@	c #B5B4A6",
"Q@	c #B3B2A5",
"R@	c #ADB698",
"S@	c #AEAA9F",
"T@	c #ABA89C",
"U@	c #B1B6A1",
"V@	c #ACAF9F",
"W@	c #AAA89B",
"X@	c #ACB09E",
"Y@	c #B0B3A0",
"Z@	c #AAB297",
"`@	c #A4A396",
" #	c #B1B2A4",
".#	c #AEAEA0",
"+#	c #B0AFA3",
"@#	c #A6A69A",
"##	c #B0B0A1",
"$#	c #A7AC94",
"%#	c #A29F92",
"&#	c #ACAA9E",
"*#	c #B5B9A5",
"=#	c #A6A59A",
"-#	c #ADB497",
";#	c #B4B5A5",
">#	c #B1B1A3",
",#	c #A9AE94",
"'#	c #ABB19D",
")#	c #A4A395",
"!#	c #ADAFA1",
"~#	c #ADAFA0",
"{#	c #ABAF9F",
"]#	c #A9AB9C",
"^#	c #AEAEA1",
"/#	c #A9A69B",
"(#	c #ABAC9D",
"_#	c #ACAC9D",
":#	c #B1B5A1",
"<#	c #A8AF96",
"[#	c #AFAC9F",
"}#	c #B4B9A1",
"|#	c #B6B4AA",
"1#	c #B4B3A8",
"2#	c #B2B6A2",
"3#	c #A7A79B",
"4#	c #A6A596",
"5#	c #A5A496",
"6#	c #B2B8A2",
"7#	c #B6B7A6",
"8#	c #B1B6A2",
"9#	c #B4B6A6",
"0#	c #B2B0A2",
"a#	c #B0B1A3",
"b#	c #B1B3A0",
"c#	c #A9A49B",
"d#	c #ACB09F",
"e#	c #B0AFA1",
"f#	c #B1B0A3",
"g#	c #A3A992",
"h#	c #AAAA9C",
"i#	c #AFAEA0",
"j#	c #ABAE9D",
"k#	c #ADAA9E",
"l#	c #AAA79B",
"m#	c #A5A498",
"n#	c #A7A29A",
"o#	c #A9A79B",
"p#	c #ADAE9F",
"q#	c #A7AC95",
"r#	c #B2ADA4",
"s#	c #B0B3A1",
"t#	c #A9A99B",
"u#	c #B1B5A2",
"v#	c #A4A298",
"w#	c #AEB69A",
"x#	c #B0B4A1",
"y#	c #AEB09E",
"z#	c #B4B1A7",
"A#	c #B3B6A4",
"B#	c #ABB297",
"C#	c #ADAB9F",
"D#	c #AFACA1",
"E#	c #A5A399",
"F#	c #B2B3A5",
"G#	c #A19D93",
"H#	c #A0A38D",
"I#	c #ADA99F",
"J#	c #B2B4A5",
"K#	c #AFAFA0",
"L#	c #AAAE9B",
"M#	c #B1B1A4",
"N#	c #A6A991",
"O#	c #ACAE9E",
"P#	c #A7A79A",
"Q#	c #A8AB9A",
"R#	c #B1B4A3",
"S#	c #A9AF9C",
"T#	c #A4A495",
"U#	c #A5A395",
"V#	c #A6A798",
"W#	c #B0ADA3",
"X#	c #A9AF95",
"Y#	c #B3B0A6",
"Z#	c #B4B7A3",
"`#	c #AEB599",
" $	c #B1AFA1",
".$	c #ADAF9E",
"+$	c #AAAA9B",
"@$	c #A4A197",
"#$	c #A39F97",
"$$	c #A5A29A",
"%$	c #AEAD9F",
"&$	c #AAAC9D",
"*$	c #AAAF95",
"=$	c #A3A598",
"-$	c #B1ACA3",
";$	c #ACAE9D",
">$	c #B1B4A2",
",$	c #B4B2A5",
"'$	c #A4A397",
")$	c #ABAD9D",
"!$	c #A9AF96",
"~$	c #ADA99E",
"{$	c #ACB19D",
"]$	c #B3B9A1",
"^$	c #B4B9A4",
"/$	c #A8A79A",
"($	c #A8A798",
"_$	c #A6A299",
":$	c #AEAB9F",
"<$	c #ABAD9E",
"[$	c #A4A497",
"}$	c #A5A394",
"|$	c #A7A598",
"1$	c #AAAB9D",
"2$	c #A3A296",
"3$	c #A5A599",
"4$	c #ABAB9F",
"5$	c #B1B7A0",
"6$	c #ABA99E",
"7$	c #B5B8A3",
"8$	c #A4A097",
"9$	c #B2AFA6",
"0$	c #A4AA94",
"a$	c #ABB298",
"b$	c #AFAAA2",
"c$	c #AFAE9F",
"d$	c #A7A59B",
"e$	c #ACACA0",
"f$	c #AAA99E",
"g$	c #A39F96",
"h$	c #A1A48E",
"i$	c #ADB09E",
"j$	c #B3AFA7",
"k$	c #AFB09F",
"l$	c #ADAF9C",
"m$	c #B5B2AA",
"n$	c #ACABA0",
"o$	c #A19E92",
"p$	c #A7A89B",
"q$	c #AFB3A2",
"r$	c #ADA89E",
"s$	c #ACA99E",
"t$	c #A29F96",
"u$	c #AAA59B",
"v$	c #A6A39A",
"w$	c #A7A299",
"x$	c #AFADA0",
"  . + @ # $ % & * = - ; > , '   ) ! ~ { ] ^ / ( _ : < [ ] } | ( ! ~ { ! < / 1 2 : < > ~ 3 | ( ! 4 5 6 < / 7 2 8 9 > ] 0 ",
"a } b c d d e f g c h i j ; k a l m m [ { n o p ; [ i q ; a r s 4 m > ; ; o 8 n [ t u v r r w ~ m i [ x o 8 n a t y z A ",
"( ] B c C D E D c D F k r G r ( ! i ; ; H I J K L y n i G [ ( ! t G M H I J K L N O P G [ ( ! ~ ; ; s I J } L N Q [ G R ",
"G < S T U V S W $ X Y ( Z ) x G ; `  .M H ` / v i ; ..Z +.x o ; ` w / H ` / y i [ ) Z +.x z n ` w M I ` ` G i { @.Z Z #.",
"$.%.&.*.u =.h -.;.>.,.'.).G L $.j !.} M > ) 2 Z ~.z r 9 n {.$. .n } / x ) 2 Z i z r q n {.$.K v } ].x ) 2 ^.] ; r 9 /.(.",
"_.:.<.[.}.D c D |.1.c 2.3.4.y } ^ . , < t 5.6.  j [ [ ^.O y K y . , < i 7.8.9.0.j x ^.x y K j ( a.; i 5.b./. .[ { ^.[ c.",
"B c D 3.d.= c g e.e.c c D f.4 > ] g.h.! > ` i.} ` t 8 j.^.h.> ] g.4 ! i S k.D g l.8 j.^.] t ! g.~ ! i `  .} ` i 8 m.^.n.",
"o.p.q.r.s.[.D g h + c c @ t.> y o ; [ G [ i x } u ]  .a m.n M o ; [ ; [ u.c D v.h  .a w.i M o G [ ; [ [ ; K ].4  ./.w.x.",
"H } H $.j y.z.A.% B.C.D.E.F.K H } H G.} w > ~ } y O ~ m.H.I.H } H G.}  .Y 3.D # J.~ K.L.M M.} H J ' N.k 4 } y n O.K.) c.",
"P.n ; | 8   ; 4 {.i O.Q.R.~ ; P.n ; G S.< ; ~ N i O.T.] ~ ; P.O ; G U.V.4.W.X.Y.Z.`. +.+++@+4.].#+S.$+v ~ o > O.T.! ] %+",
"m.n z z : &+( ! ] , . ^ o n k n 9 y u *+&+=+! ] t 2 q G -+K.j.[ o ;+>+C f ,+'+d )+!+J.3.D 3.U ~+{+]+c ^+! ] t 2 M G [ /+",
"M ; (+Q.{ v [ ; q | _+5. .H H H ].i O.:+v [ ; q <+&+P ].i P / ; i [+)+c c # }+c c D >.= c 3.@ h U |+1+7.n q M _+8 M [ 2+",
"H s i ] 4 x z 3+%.7.4+5+6+7+P.K 8+}+C. +i > #+9+k m.0+[ a+P.s K [ [+D 3.3.b+^+c+c c d+= c c e+F 2.f+b g+i q ;+Z 0+> a+h+",
"N Q.O | i+q j+k+c <.l+g g r.m+X.U r.n+;.e.= = o+:+:+> x i.{.O T.[ q p+q+q+r+l+s+h t+W.p+q+q+u+^+v+w+p+x+! ] :+:+> [ a+y+",
"( ! ! r z+) A+B+c 3.>.v+c D C+D+c D [..+E+c v.# F+~ x ! i i ( 6 ! -+8 2 G+1.H+I+$.J+C+h K+d+G+L+M+5.) n x a.( ~ x ! ~ x.",
"/.. ! O.{ N+H+# 3.c Y o.r.v.O+P+c c 3.Q+u.D <.<.E.r < > ~ j | . ! ~ { R+= S+c c T+D c c U+V+g c J+:+R+< / 7 _ 8 9 [ a.W+",
"a } m m [ Q g+~+9.T+X+Y+Z+$+  `+ @U+.@+@@@C+#@$@; [ t ].G a a s 4 m i k H+c D D p+D c D s+C+c D %@&@; ; o 8 n a t y u *@",
"( ] i n u s J J } ).@@=@g+3+>.-@;@>@,@l.,@ . .y L y n Z.G [ ( ! 4 ; n ] '@D 3.H+$@3.[.<.v+e.3.]+)@!@H I J K L N n P G R ",
"G ; `  .].H ` v A+v.D D ~@{@c c '@]@^@v./@i.} } x > ..Z +.x G ; `  .; ~ q (@_@>@:@N ]._@<@[@}@j y.j I ` ` G i [ ) Z 0+|@",
"$. .n H v > L.2 C+D g <.1@D c C b Z+2@<.)@W.3@) ] ; r q n {.$. .!.} / > 2 m.Z 4@^ o v n {.5@K n  .].x ) ) ^.] ; r q /.y+",
"} M . , o ~ : 6.P+6@[.D 7@D g c e.h c D E+S.8@| J x > ^.O y K j . , < i : b./.S > x ^.x y K y . p ; i : b.k 9@[ { ^.[ 0@",
"(+] g.h.! [ `  .w S >.s+a@b@~@c@W.+@D.5+d@ .P+e@} y 8 j.Z h.f@a.g.h.! i ` i.} ` i g@m.^.] > ! g.~ ! i  . .$.` i 8 j.h@i@",
"y o ; [ ; x t x } y ]  .S.m.i =.3.U 2.4.Y v.d c j@K I a w.i M o ; [ ; > i x } ].4  .a w.Z.].< ; [ G > i ; K ].4  ./.w.k@",
"H } H l@ .j t t } y O ~ m.H.y 1+d c m@} n@o@c D ,.^ i K.( I.H } H G.} H f@4 } y O ~ K.@.p@M.} H J '  .i 4 } y n ~ K...q@",
"P.n ; ; [   ; ~ y i T.T.4@] n ]@D 2.[..+  o.U r@Y.s@T.R.4 ; @+z y t@U.$+$+u@z > i > v@~ ; P.O ; G z+  G ~ o Z.w@+@x@4@%+",
"j.n y ^ : &+( ! ] ~ . y o (+K.7@'@1@Z+y@&+W.d+z@, . ^ y -+A@3.&.B@M+U c c $ J.v.2.%.C@r K.K.r q u D@m.=+! ] E@<.F@G@[ H@",
"M ; ~.g.{ v [ ; q | w.:  .i : M ; I@s@:+v > ; q <+_+5./ -+3+e@J@c T+L K@[.,.^ K@c k.1@r P M ; t f@O y [ n q T c L@%.[ M@",
"H K i ] ~ x x O q -+K.0+x a+P.H j [ ! 4 x x x v [ m.0+[ a+I.s N@%@G+f+O@J@P+9+k+3.3.Y a+P.s } Z.] 4 x O [ ^ P@3.%@Q@K R@",
"O O.O ; i+q } x 4@>@5 > x K {.N > x | i+G } x ] O :+> x K {.>@7.S@v T@$+U@l.B.!@N X.V@K N :+Q.> y W@o.} n v@X@Q X.Y Y@Z@",
"( ! ! r b.) y U@] ( ~ x ! i i . 6 ! r z+) o  .] ( ~ x ! i > `@R+! -+z+) o H .+I+ #M+^+.#f+H++#@###k+%@o.w , ( ~ x ] ~ $#",
"a +.! O.{ 6 ^ y ( %#r < i R+ ./.+.! ~ { ! ^ v ) %#r 9 i R.3   8 t ~ :+R+o v &#v.L@n+E@+#*#J@2.=#U |+<.n+ .a.%#8 o i ! -#",
"a s m m [ i O o 7 k -+i q ;   a H 4 m [ n O o a.n -+t o >@/./.J M G [ i x o g+p.)@%@%.n+e@;#$.4@x@Q@%@>#v g@n r ~ o < ,#",
"R+] t O ; } G.J a+'#P.n k G P r ]./ G M H I J a+'#L n [ z -+( t ; l@j } I J K L C@O@3+o.%@E+e.f@;+v+H ' J a+L L ; r y |@",
"O ; ` N./ H ` / ].i { )#m.) O ; x / w Z+j+S ].j !#3+~#> .+3+$+{#]# @ @$.` ]@,.^#}.f.A./#(#d@_#`  .).J S :#M+> { H.%#+.<#",
"5@ .y ' M x b.i+2 4 Q -+q k L 5@].~ E@<.%@r.}.[#f c+<.$+o.B@}#]@b |#1#)@Y.v.c g P+u.]@,.N 5@2#J@:#S L@1#r.D 3#M -+q [ y+",
"} j ( i q ~ 4#5#a ].[ x Z ; P.} K 0+C+c D D V.,.D c c s+e@_.6#Z+U+g c+3.7.%@[.7#P+!@<.G@8#j+9#D Q@%.0#2@r.[.1@> O Z x 0@",
"~ ] i ] ] [ `  .} ].i b.m.) ~ > R.i a#D Q@b# ._.L@D >+c#2.%@r.L+d#U D f+S ' $.n@e#f#>+D <.7.b !@f+h 3+n@' H  .i p j.Z g#",
"z < n r n i > Q } ].]  .S.w.f@M G n h#i#X++@j#j %.d+^+v W@k#l#W.m#d@i#n#.+^+@+C@o#9@V.n#s+$+3+y .+p#_@_@d@ . .4  ./.w.q#",
"J } H G. .w i t } u x 4 j.. } J } H G. .H H+C j@F@E r#C )+s#P+c = C+t#!+C 3.u#r@2.c+= v#I.J } H J ' } n 4 } u n ~ K.. w#",
"I.; n ; S.v G 4 u i Q.T.! t >@I.; ; G r q Q@%@%@D l+f f c !@x#3.D # y#D c b H+e.z#c c B.>@I.O@A#;#&.j G ~ N > O.Q.! 4@B#",
"K.n y y z+w.=+! ] h.( 9 G (+Z K.k y ^ r &+C+D # <.d.g D 3.D+C#D c 3.W@D c D D#h <.n+U E#Z 4+F#j@B+2@G#=+! ] 4 . 9 G -+H#",
"<+; 4 T.{ | i n o <+_+S.` i 8 <+; ~.f@{ | @@o.r@:#[@v+H+,+I#8.$ q+B $+J#f+o.C@K#$ @@^ L#(+v - 3.M#N | i x o / &+8 / [ N#",
"H K t ] O.n x n / k m.^.[ a+I.H K i ] O.n x O o O 3@v (+o#(+O#+@x+H+!@L n Y ]@$+> g.x P.I.H  .P#F.(+{ n x / n 8@^.> M R@",
"{.g.n ; i+q } [ 4@:+Q#> x } {.:+T.x | i+9 } x 4@:+Q#> ] >+R#|+ #h n+<.b }+e+c ]+1+g.O } N S#g.[ y 3@; } n ~ Q 5 > [ K y+",
"L.! ! r 5#b.y  .h.T#O.x ! i i ( ! ! P b.U#y U@V#6 O.x ! W#c ]+E+s+r.D >+^#b c D D Z.! i > v@] ! P z+) o H (+T#~ x ] ~ X#",
"a +.! t { R+q v ( %#r < ; (+3 /.+.! O.{ R+].].N+%#r 9 i H+j@&.,+s+2.3.Y#%.Z#2.c L@o i ! S | ) ! ~ O R+< / a.2 8 o i ] `#",
"a s m m > k [ E s+ $@@.$]@~+,.~+l m m > i O o a.n -+t n z +$@$#$F.$$W.7.X.$+$@%.%$P#o >@n a J ~ m i x [ &$.+y ; ~ o u *$",
"T#] t O v ] >@h D D D e )+c D W#=$~ O ; } I J a+'#P.n k y -+-$!+= b+;$} } J a+L L n r z -+( ] 4 n G h.Q # c o.>$G k M |@",
"O n ` U@n h.M I+c c c+7@V+3.r.,$;+` N.M H ` ]./ i { '$m.( O f+D c 3.)$H ` ` M i [ ) m.+.O ; x ` N.j#h.y Q@c c J+..8@+.!$",
"5@ .; ' y > ) ~$c D f+4.v+O@{$]$S y ' / n b.i+2 ] !.-+q a {.]$^$3.@ 4@n b.3@Z h.M -+q [ {.5@ .G w / x /$b c c P+P q r y+",
"} z ( i q x ($_$:$/@<$O t#.$P.} j [$i o i 4#}$a ].> O Z n P. .'@q+I#i h.4#}$r 7+> O Z n P.} ].( (+< i |$8.0#;#Y :+Z O 0@",
" +1$i 1$.+).j@h J./ Y -@G+2$J.^#~#i 3$4$3+3 N.H ` i p m.Z 4 > v@i R.] > ` i.5$ .i p m.) h.i ! i h.! i i. .5$ .t#p j.Z g#",
"v+%@U b 6$# v.z#1.v+C 7$,.8$9$f r.u.7.g 3.D >#} ].]  .a w.> ^ ; ; r n i > x } K 4  .a w., z ; ; r ; i > Q }  .4  ./.w.0$",
"U c c c s+g g z#H+G+c 3.c f.C+c c+C+$@c g f @@} u x ~ K.) K J } H G.} N.i 4 } u O ~ K.. j J } H J ' } n ~ } u n ~ K.+.a$",
"x## 3.r.9+Q@c U M+I+c D = ^+@ D 3.e.}.U c D T+y i T.Q.! ~ >@I.; ; G 5.q G ~ y i T.Q.h.g.G I.; G G P | G ~ y [ O.Q.! ] %+",
"G#s.j ]@;@].3+7.M +$8$1@s.=#b$>+%$^ y $.c$5+$$=$h.. 9 G (+Z K.[ y u D@m.=+! ] (+o#d$e$[+f$F }.$+[@@$g$W.[+] h.. y y -+h$",
"<+; 4@> O y n i$y.k+j$k$b#d c c I+~ O.L# .i x o l$%#r  .-+z+<+; t f@O ; i x o A#m$z#c |.= c ]+C+n$c+g b }.o ].o$D@].[ N#",
"H K Z.] O.; 4 &#D v.c o#3#3.U &.J+p$] O.n x O / k m.K.[ a+I.H K i ] 4 O O O / l.g c c s+3.c c & '+c c k.9+` k Z K.> M R@",
":+g.n ; i+q } 3+c D D x+! '+q$>@e <@| i+9 } x ~ >@Q#> x } {.:+Q.x <+i+9 } x ~ J.c c = d+3.c f b ).<.D ,$H o { { > [ } y+",
"( ! ! r 3@b.y 3 ~$r$s$}.! I@.@'$] ! 5.4#3@q  .a.T#t x ! i > ( ! ! 5.4#i+o w I@t$u$%$n#=#v$w$7@7@.+ $q+x$V. .(+O.x ] ~ |@"};
