/* XPM */
static char * collectible_xpm[] = {
"60 60 289 2",
"  	c None",
". 	c #161C2E",
"+ 	c #00002E",
"@ 	c #CCD23F",
"# 	c #B9BF3C",
"$ 	c #464A30",
"% 	c #3A3E2F",
"& 	c #00062E",
"* 	c #A1A639",
"= 	c #EBF244",
"- 	c #ECF344",
"; 	c #D5DC41",
"> 	c #3B3F2F",
", 	c #171D2E",
"' 	c #2C312F",
") 	c #DCD549",
"! 	c #D1AF52",
"~ 	c #EAF144",
"{ 	c #DBDF43",
"] 	c #3E3032",
"^ 	c #20212F",
"/ 	c #151B2E",
"( 	c #5B4837",
"_ 	c #987C44",
": 	c #DED04E",
"< 	c #D0AA53",
"[ 	c #D3A955",
"} 	c #504234",
"| 	c #3B3D46",
"1 	c #5F6065",
"2 	c #4D4F56",
"3 	c #171C2E",
"4 	c #373031",
"5 	c #B9954E",
"6 	c #9C7D45",
"7 	c #1D202E",
"8 	c #0E152E",
"9 	c #00002D",
"0 	c #6D6E72",
"a 	c #F8F8F8",
"b 	c #EFEFF0",
"c 	c #B5BA64",
"d 	c #00102D",
"e 	c #00122D",
"f 	c #141A2E",
"g 	c #505430",
"h 	c #8E9336",
"i 	c #E5EC43",
"j 	c #E4EB43",
"k 	c #E4EB42",
"l 	c #C8CE3E",
"m 	c #5C6031",
"n 	c #5E6231",
"o 	c #525553",
"p 	c #C7C7CA",
"q 	c #CDD342",
"r 	c #AAB03A",
"s 	c #000A2E",
"t 	c #00062D",
"u 	c #151C2E",
"v 	c #565A31",
"w 	c #DEE542",
"x 	c #E9F044",
"y 	c #EDF27E",
"z 	c #F7F9CF",
"A 	c #F7FACF",
"B 	c #EDF470",
"C 	c #B39D47",
"D 	c #816737",
"E 	c #00072E",
"F 	c #4C5030",
"G 	c #656932",
"H 	c #BEC363",
"I 	c #E9EE76",
"J 	c #E5EC41",
"K 	c #D6C34E",
"L 	c #5E4D37",
"M 	c #564436",
"N 	c #E5EB43",
"O 	c #EFF497",
"P 	c #FFFFFF",
"Q 	c #FEFEFB",
"R 	c #E9F03C",
"S 	c #E8ED45",
"T 	c #CEA354",
"U 	c #745D3B",
"V 	c #131A2E",
"W 	c #3B422F",
"X 	c #D9DF41",
"Y 	c #ECF35D",
"Z 	c #FDFEF0",
"` 	c #FEFFFC",
" .	c #EFF493",
"..	c #D8C54F",
"+.	c #D0A654",
"@.	c #D1A755",
"#.	c #979B38",
"$.	c #969B37",
"%.	c #828735",
"&.	c #CBD23E",
"*.	c #FAFDE2",
"=.	c #F3F7B5",
"-.	c #E9EF43",
";.	c #D9C74E",
">.	c #CCA353",
",.	c #00052C",
"'.	c #3F3632",
").	c #C9A750",
"!.	c #E9F137",
"~.	c #FDFEF6",
"{.	c #F2F6B1",
"].	c #DCCE4D",
"^.	c #CBA353",
"/.	c #77603C",
"(.	c #312C30",
"_.	c #614F37",
":.	c #282D2E",
"<.	c #AF8061",
"[.	c #AF7F61",
"}.	c #AD7D5C",
"|.	c #F1ECE8",
"1.	c #E9F046",
"2.	c #E0D84A",
"3.	c #CEA554",
"4.	c #A28247",
"5.	c #141B2E",
"6.	c #362F31",
"7.	c #C09A50",
"8.	c #D0AC53",
"9.	c #E9F140",
"0.	c #F0F5A0",
"a.	c #F1F5A4",
"b.	c #EDF477",
"c.	c #CBBD50",
"d.	c #EAF243",
"e.	c #CEC945",
"f.	c #685439",
"g.	c #D1A855",
"h.	c #987A44",
"i.	c #7E5847",
"j.	c #AC7A58",
"k.	c #AB7756",
"l.	c #C7AC9C",
"m.	c #E9F142",
"n.	c #A48447",
"o.	c #0C182E",
"p.	c #6E593A",
"q.	c #CFA455",
"r.	c #E7EA46",
"s.	c #C8B750",
"t.	c #B58F56",
"u.	c #E6EB46",
"v.	c #111A2E",
"w.	c #9F7F46",
"x.	c #D5BA51",
"y.	c #E8EF44",
"z.	c #D9D74A",
"A.	c #B79455",
"B.	c #DCDB49",
"C.	c #AF8357",
"D.	c #000E2D",
"E.	c #C69E51",
"F.	c #CDA354",
"G.	c #E7EB45",
"H.	c #C8B651",
"I.	c #958445",
"J.	c #D4DB40",
"K.	c #5A4B36",
"L.	c #675338",
"M.	c #9E953E",
"N.	c #E5E946",
"O.	c #E6EB45",
"P.	c #E9F144",
"Q.	c #DDDC49",
"R.	c #E0D94A",
"S.	c #C59E51",
"T.	c #E2DE49",
"U.	c #D1C74E",
"V.	c #AD7C58",
"W.	c #6E4F41",
"X.	c #626632",
"Y.	c #E2E943",
"Z.	c #E4E348",
"`.	c #937443",
" +	c #0B142E",
".+	c #C6C542",
"++	c #E5E547",
"@+	c #E9EF44",
"#+	c #CEA454",
"$+	c #A48448",
"%+	c #E4E846",
"&+	c #BFA553",
"*+	c #09122E",
"=+	c #C3C93E",
"-+	c #D6BA51",
";+	c #121A2E",
">+	c #B38F4C",
",+	c #D5BC50",
"'+	c #574835",
")+	c #D0AB53",
"!+	c #E6E946",
"~+	c #E2E547",
"{+	c #AA7459",
"]+	c #AE8057",
"^+	c #C0A753",
"/+	c #5A413B",
"(+	c #0D182D",
"_+	c #352B31",
":+	c #BB964E",
"<+	c #CCA254",
"[+	c #CCA354",
"}+	c #E3E049",
"|+	c #E2DF49",
"1+	c #E2E049",
"2+	c #D2B252",
"3+	c #CFA654",
"4+	c #B5914C",
"5+	c #10192E",
"6+	c #735D3B",
"7+	c #D1AF53",
"8+	c #E7ED45",
"9+	c #DFDF49",
"0+	c #D3CE4B",
"a+	c #5D423C",
"b+	c #1D222E",
"c+	c #D4D842",
"d+	c #D4B851",
"e+	c #C59B55",
"f+	c #B28357",
"g+	c #BD8F56",
"h+	c #BA8C57",
"i+	c #A0784E",
"j+	c #2C292F",
"k+	c #403632",
"l+	c #D0A755",
"m+	c #D9C64E",
"n+	c #AC7958",
"o+	c #AD7B58",
"p+	c #8D644C",
"q+	c #24242F",
"r+	c #A38347",
"s+	c #E7EC45",
"t+	c #B38357",
"u+	c #AD7A58",
"v+	c #6B4D40",
"w+	c #463536",
"x+	c #A98849",
"y+	c #E1DB4A",
"z+	c #D3B452",
"A+	c #B28257",
"B+	c #A47455",
"C+	c #8F664D",
"D+	c #775544",
"E+	c #121B2E",
"F+	c #21222F",
"G+	c #A58448",
"H+	c #D3B552",
"I+	c #CDA454",
"J+	c #B18157",
"K+	c #A97857",
"L+	c #513C38",
"M+	c #131B2E",
"N+	c #07162D",
"O+	c #2D2531",
"P+	c #AE8452",
"Q+	c #0A182D",
"R+	c #342A32",
"S+	c #B08355",
"T+	c #B18058",
"U+	c #0B192D",
"V+	c #02162D",
"W+	c #000A2C",
"X+	c #855F4A",
"Y+	c #A07154",
"Z+	c #AD7A59",
"`+	c #AC7A59",
" @	c #AB7958",
".@	c #AD7B59",
"+@	c #89624B",
"@@	c #413235",
"#@	c #392D33",
"$@	c #453536",
"%@	c #65493E",
"&@	c #A87756",
"*@	c #966A4F",
"=@	c #433335",
"-@	c #00162D",
";@	c #01162D",
">@	c #07182D",
"                                                                                                                        ",
"                                                                                                                        ",
"                                                                                                                        ",
"                                                                                                                        ",
"                                                                                                                        ",
"                                                                                                                        ",
"                                                                                                                        ",
"                                                                                                                        ",
"                                                                                                                        ",
"                                                                                                                        ",
"                                                                                                                        ",
"                                                                                                                        ",
"                                                                                                                        ",
"                                                                      . + @ # $ % .                                     ",
"                                                                        & * = - ; > ,                                   ",
"                                                                          ' ) ! ~ { ] ^                                 ",
"                                                                        . / ( _ : < [ }                                 ",
"                                                                      . | 1 2 3 4 5 6 7                                 ",
"                                                          . 8 9 9 9 + . 0 a b c 9 d e                                   ",
"                                                        f g h i j k l m n o p q r f .                                   ",
"                                      . . s 9 9 + t u . v w ~ x y z A B - C D 9 E .                                     ",
"                                    . F G H I J i K L M i x i N O P P Q R S T U V                                       ",
"                                  . W X Y Z `  .x ..+.@.#.$.%.&.*.P P P =.-.;.>.,..                                     ",
"                                . '.).!.~.P P {.x ].^./.(._.V :.<.[.}.|.1.x 2.3.4.5.                                    ",
"                                6.7.8.9.0.a.a.b.c.d.e.9 f.g.h.9 i.j.k.l.m.x 2.3.n.5.                                    ",
"                              o.p.q.r.x x x x s.t.u.x h v.w.x.y.z.A.B.C.~ x 2.3.n.5.                                    ",
"                              D.E.F.G.x x x x H.j.I.y.J.K.L.M.~ N.O.P.Q.x x R.3.n.5.                                    ",
"                              D.S.T T.x x x x U.V.W.X.Y.Z.`. +.+++x x x x @+#+3.$+5.                                    ",
"                              D.S.3.8.~ x x %+&+V.W.*+=+S -+;+>+,+P.x x P.;.3.>.'+                                      ",
"                              D.E.3.)+!+x x ~+{+]+^+/+(+V 5._+:+<+[+}+|+1+2+3+4+e                                       ",
"                              5+6+3+3.7+S x 8+B.9+~ 0+a+b+. c+d+e+f+g+#+#+h+i+j+.                                       ",
"                              . k+l+3.3.#+m+@+x x x x ~ ~ ~ x x e+n+j.j.j.o+p+5.                                        ",
"                                q+r+3.3.3.F.s+x x x x x x x x @+F.t+j.j.u+v+w+.                                         ",
"                                . D.x+3+3.3.8.y+x P.x x x x s+z+<+A+B+C+D+E+.                                           ",
"                                  . F+G+>.3.3.#+H+z+S y.y.@+2+I+J+j.K+L+M+.                                             ",
"                                      N+O+P+3.3.3.3.T T T T <+A+j.j.j.j.Q+.                                             ",
"                                        . R+S+^.I+I+I+I+I+I+T+j.j.j.j.K+U+.                                             ",
"                                          . V+W+X+Y+Z+Z+`+ @j.j.j..@+@@@.                                               ",
"                                              . u #@$@$@%@K+&@&@*@=@5.. .                                               ",
"                                                    . . M+-@;@;@>@. .                                                   ",
"                                                                                                                        ",
"                                                                                                                        ",
"                                                                                                                        ",
"                                                                                                                        ",
"                                                                                                                        ",
"                                                                                                                        ",
"                                                                                                                        ",
"                                                                                                                        ",
"                                                                                                                        ",
"                                                                                                                        ",
"                                                                                                                        ",
"                                                                                                                        ",
"                                                                                                                        ",
"                                                                                                                        ",
"                                                                                                                        ",
"                                                                                                                        ",
"                                                                                                                        ",
"                                                                                                                        ",
"                                                                                                                        ",
"                                                                                                                        "};
