/* XPM */
static char * player_back_xpm[] = {
"60 60 536 2",
"  	c None",
". 	c #161C2E",
"+ 	c #21202F",
"@ 	c #2B2431",
"# 	c #B37765",
"$ 	c #B07564",
"% 	c #B27665",
"& 	c #292431",
"* 	c #423037",
"= 	c #C3826D",
"- 	c #C6846F",
"; 	c #956457",
"> 	c #7E544D",
", 	c #C6836E",
"' 	c #C5836E",
") 	c #402F36",
"! 	c #4A353A",
"~ 	c #966458",
"{ 	c #00162C",
"] 	c #B57866",
"^ 	c #C47F6C",
"/ 	c #BD6C61",
"( 	c #BD6D62",
"_ 	c #4D373A",
": 	c #00152C",
"< 	c #C5826D",
"[ 	c #5C3A3D",
"} 	c #714C48",
"| 	c #C6846E",
"1 	c #C17767",
"2 	c #B65455",
"3 	c #B75655",
"4 	c #B65555",
"5 	c #7E435A",
"6 	c #3B283E",
"7 	c #141C2D",
"8 	c #72363E",
"9 	c #C4816D",
"0 	c #803F43",
"a 	c #C5846E",
"b 	c #B75555",
"c 	c #522C37",
"d 	c #683D5C",
"e 	c #101B2D",
"f 	c #D5B583",
"g 	c #D5B582",
"h 	c #71363E",
"i 	c #C37D6B",
"j 	c #B85C58",
"k 	c #B95F5A",
"l 	c #342231",
"m 	c #AC5151",
"n 	c #B55555",
"o 	c #534940",
"p 	c #F3EDE6",
"q 	c #D6B787",
"r 	c #C2806C",
"s 	c #B85B58",
"t 	c #C27C6A",
"u 	c #BE6F62",
"v 	c #A84F50",
"w 	c #422634",
"x 	c #703841",
"y 	c #E6E6E5",
"z 	c #FCFAF8",
"A 	c #D5B584",
"B 	c #D1B281",
"C 	c #C4826D",
"D 	c #C37E6B",
"E 	c #AD5152",
"F 	c #302131",
"G 	c #2A2030",
"H 	c #D6D09D",
"I 	c #FFFFFF",
"J 	c #FBF8F5",
"K 	c #A48B65",
"L 	c #743E41",
"M 	c #C5826E",
"N 	c #63323B",
"O 	c #5F364F",
"P 	c #031A2D",
"Q 	c #D6D09C",
"R 	c #FAF8E9",
"S 	c #E9E7DA",
"T 	c #B89C72",
"U 	c #462734",
"V 	c #B85957",
"W 	c #C5846F",
"X 	c #AC5152",
"Y 	c #2E2234",
"Z 	c #6C3D59",
"` 	c #864045",
" .	c #111B2E",
"..	c #D8BC86",
"+.	c #F7F1EB",
"@.	c #F8F5E0",
"#.	c #E5D3BD",
"$.	c #412633",
"%.	c #8C4146",
"&.	c #B75455",
"*.	c #B65454",
"=.	c #B85656",
"-.	c #843F44",
";.	c #0A1A2D",
">.	c #50314A",
",.	c #6B3E5B",
"'.	c #442734",
").	c #CFC190",
"!.	c #DFCA95",
"~.	c #E4D2B9",
"{.	c #EEE5C6",
"].	c #F9F5F0",
"^.	c #212635",
"/.	c #141C2E",
"(.	c #251F2F",
"_.	c #934549",
":.	c #924549",
"<.	c #70373E",
"[.	c #2C2236",
"}.	c #4E3049",
"|.	c #693D5B",
"1.	c #2A2236",
"2.	c #202230",
"3.	c #DBCB96",
"4.	c #D5B482",
"5.	c #DFCC95",
"6.	c #F7F4DD",
"7.	c #7C7960",
"8.	c #151B2E",
"9.	c #000C2A",
"0.	c #2A2135",
"a.	c #3A273D",
"b.	c #57344F",
"c.	c #000D2A",
"d.	c #A68D69",
"e.	c #EDE6AC",
"f.	c #D8D29D",
"g.	c #756F5B",
"h.	c #EBDDA8",
"i.	c #383739",
"j.	c #4A2D47",
"k.	c #603955",
"l.	c #633957",
"m.	c #5E3654",
"n.	c #807961",
"o.	c #E8DAA6",
"p.	c #6A6553",
"q.	c #12192D",
"r.	c #07152C",
"s.	c #D3B482",
"t.	c #DEC994",
"u.	c #ECE5AB",
"v.	c #454540",
"w.	c #635E51",
"x.	c #F1E4B4",
"y.	c #EADEB0",
"z.	c #A9A188",
"A.	c #484540",
"B.	c #E7D9A6",
"C.	c #E8DCAF",
"D.	c #F0E3B3",
"E.	c #EFECE3",
"F.	c #4C4941",
"G.	c #222231",
"H.	c #A48C68",
"I.	c #DCC490",
"J.	c #EBE4AA",
"K.	c #D2CC99",
"L.	c #131A2D",
"M.	c #4D4141",
"N.	c #836B5F",
"O.	c #2E2E39",
"P.	c #78797D",
"Q.	c #FDFDFD",
"R.	c #FCFCFC",
"S.	c #FDFBF4",
"T.	c #FCFAF4",
"U.	c #FAF7F3",
"V.	c #9A8069",
"W.	c #8C7264",
"X.	c #907667",
"Y.	c #141B2E",
"Z.	c #574C42",
"`.	c #D6B684",
" +	c #CEAF7F",
".+	c #736F59",
"++	c #EAE3AA",
"@+	c #565549",
"#+	c #09172C",
"$+	c #977B6B",
"%+	c #C2A47B",
"&+	c #B99E73",
"*+	c #C8B88A",
"=+	c #CEC192",
"-+	c #F4EAC7",
";+	c #F3EAC6",
">+	c #F1E6BF",
",+	c #D6B683",
"'+	c #A3876F",
")+	c #987B6B",
"!+	c #3A3339",
"~+	c #0A162D",
"{+	c #B1976F",
"]+	c #5D564B",
"^+	c #C2BD8E",
"/+	c #05112B",
"(+	c #604F4B",
"_+	c #A0846E",
":+	c #EFE2AC",
"<+	c #EFE1AB",
"[+	c #E4CF9B",
"}+	c #C5A67C",
"|+	c #967A6B",
"1+	c #9A7D6D",
"2+	c #08162C",
"3+	c #6B5C4B",
"4+	c #C3A679",
"5+	c #C8BC91",
"6+	c #E8E2A9",
"7+	c #00082A",
"8+	c #10192D",
"9+	c #7E675C",
"0+	c #95796A",
"a+	c #D4B482",
"b+	c #EBDAA5",
"c+	c #F5ECCD",
"d+	c #F7F0D9",
"e+	c #F5EDD0",
"f+	c #ECDDA7",
"g+	c #B09374",
"h+	c #987C6B",
"i+	c #554746",
"j+	c #000D2B",
"k+	c #00122C",
"l+	c #BDA075",
"m+	c #C9AB7C",
"n+	c #877462",
"o+	c #E8E1A8",
"p+	c #6E5E4B",
"q+	c #171C2E",
"r+	c #01172C",
"s+	c #42393C",
"t+	c #B19475",
"u+	c #ECDCA7",
"v+	c #EFE0A9",
"w+	c #F8F1DC",
"x+	c #D8BB88",
"y+	c #BEA07A",
"z+	c #846C60",
"A+	c #00112C",
"B+	c #CAAC7D",
"C+	c #806E55",
"D+	c #7E6C54",
"E+	c #D6B583",
"F+	c #3D3738",
"G+	c #393437",
"H+	c #00092A",
"I+	c #00142B",
"J+	c #AC7262",
"K+	c #6D5A52",
"L+	c #A58870",
"M+	c #CAAB7E",
"N+	c #E6D29D",
"O+	c #EDDEA9",
"P+	c #EFE1AA",
"Q+	c #FCF9EF",
"R+	c #EFE1AC",
"S+	c #EEDFA9",
"T+	c #CEAE80",
"U+	c #987C6C",
"V+	c #0F192D",
"W+	c #584D42",
"X+	c #857157",
"Y+	c #191E2E",
"Z+	c #C1A479",
"`+	c #312E34",
" @	c #D3B382",
".@	c #847057",
"+@	c #7C3A41",
"@@	c #BA7C69",
"#@	c #392833",
"$@	c #4B353A",
"%@	c #40373B",
"&@	c #A78B71",
"*@	c #D4B483",
"=@	c #D9BC89",
"-@	c #DABD8A",
";@	c #E6D29C",
">@	c #F1E5B9",
",@	c #F1E5B7",
"'@	c #A1856F",
")@	c #A2856F",
"!@	c #80695D",
"~@	c #51473F",
"{@	c #857257",
"]@	c #4C4140",
"^@	c #3C343A",
"/@	c #000B2A",
"(@	c #1D1D2E",
"_@	c #B4635B",
":@	c #B67967",
"<@	c #D1B181",
"[@	c #D5B684",
"}@	c #EDDDA8",
"|@	c #FBF7EC",
"1@	c #FDFCF8",
"2@	c #FBF8ED",
"3@	c #7C655B",
"4@	c #312C36",
"5@	c #856D60",
"6@	c #5B4E44",
"7@	c #D0B080",
"8@	c #C9AA7D",
"9@	c #232232",
"0@	c #151C2E",
"a@	c #242431",
"b@	c #937869",
"c@	c #897062",
"d@	c #0A172C",
"e@	c #554A41",
"f@	c #13192D",
"g@	c #BC6B60",
"h@	c #AA5A55",
"i@	c #F2E6BB",
"j@	c #FFFEFE",
"k@	c #BD9F79",
"l@	c #766158",
"m@	c #927768",
"n@	c #886F62",
"o@	c #CCAD7F",
"p@	c #282832",
"q@	c #252531",
"r@	c #121C2E",
"s@	c #33253B",
"t@	c #52314B",
"u@	c #564846",
"v@	c #574947",
"w@	c #121B2D",
"x@	c #7F3D42",
"y@	c #A74E50",
"z@	c #EFE1A9",
"A@	c #D9BD8A",
"B@	c #826B5F",
"C@	c #937C61",
"D@	c #7D6B54",
"E@	c #7B6852",
"F@	c #E8DAA2",
"G@	c #D3B483",
"H@	c #C8C191",
"I@	c #C7C192",
"J@	c #030F2B",
"K@	c #572D38",
"L@	c #733944",
"M@	c #131B2D",
"N@	c #4F314A",
"O@	c #53324C",
"P@	c #6A3E5C",
"Q@	c #9C4D58",
"R@	c #9D4A4C",
"S@	c #612F39",
"T@	c #BC9E79",
"U@	c #EDDEA8",
"V@	c #F8F3E1",
"W@	c #F8F3E0",
"X@	c #F4EBCC",
"Y@	c #F0E2AC",
"Z@	c #E2CB97",
"`@	c #D6B785",
" #	c #846B60",
".#	c #574846",
"+#	c #896F62",
"@#	c #776158",
"##	c #000024",
"$#	c #3F423E",
"%#	c #A9A37C",
"&#	c #DECA95",
"*#	c #000E2B",
"=#	c #0F1B2C",
"-#	c #663B59",
";#	c #51314B",
">#	c #453B3F",
",#	c #463C3E",
"'#	c #D7B684",
")#	c #FDFBF6",
"!#	c #F6EED4",
"~#	c #F0E4C4",
"{#	c #DEC592",
"]#	c #D6B784",
"^#	c #E1CA96",
"/#	c #D8BA88",
"(#	c #B09274",
"_#	c #1B1F2F",
":#	c #997C6C",
"<#	c #64534D",
"[#	c #46423E",
"}#	c #D5B886",
"|#	c #35263B",
"1#	c #593550",
"2#	c #54334D",
"3#	c #BEA176",
"4#	c #C8A97D",
"5#	c #7D675C",
"6#	c #A3866F",
"7#	c #C7A87D",
"8#	c #D7B986",
"9#	c #F7F0D8",
"0#	c #FAF6E9",
"a#	c #CAAA7E",
"b#	c #AD9073",
"c#	c #2B2833",
"d#	c #8D7365",
"e#	c #D7BB88",
"f#	c #BCA075",
"g#	c #D2B282",
"h#	c #947969",
"i#	c #212231",
"j#	c #6E5A53",
"k#	c #9F8470",
"l#	c #EAD9A4",
"m#	c #F7F0D7",
"n#	c #FCF9F1",
"o#	c #F8F2DE",
"p#	c #E8D7A3",
"q#	c #C9AA7E",
"r#	c #D4B583",
"s#	c #B79977",
"t#	c #1A1E2F",
"u#	c #453B3E",
"v#	c #8F7566",
"w#	c #463E3B",
"x#	c #B39970",
"y#	c #927767",
"z#	c #272632",
"A#	c #1C1F2F",
"B#	c #937868",
"C#	c #A1846E",
"D#	c #EEE0AA",
"E#	c #C4A67C",
"F#	c #D0B081",
"G#	c #745F56",
"H#	c #524641",
"I#	c #121A2D",
"J#	c #4B413E",
"K#	c #201F31",
"L#	c #CEAF80",
"M#	c #D7B886",
"N#	c #705C54",
"O#	c #1E1E30",
"P#	c #443A3D",
"Q#	c #967B69",
"R#	c #111B2D",
"S#	c #6A3D5B",
"T#	c #1D1E30",
"U#	c #CBAC7F",
"V#	c #DBC08D",
"W#	c #D8BB89",
"X#	c #AB9075",
"Y#	c #64524D",
"Z#	c #302C35",
"`#	c #3F2940",
" $	c #5B3652",
".$	c #917667",
"+$	c #9C806D",
"@$	c #0B172C",
"#$	c #594A47",
"$$	c #7E6B55",
"%$	c #847157",
"&$	c #847056",
"*$	c #60504B",
"=$	c #232331",
"-$	c #111A2D",
";$	c #101B2C",
">$	c #623A56",
",$	c #51324B",
"'$	c #322D36",
")$	c #8C7265",
"!$	c #977C69",
"~$	c #422B42",
"{$	c #643B58",
"]$	c #1E1E31",
"^$	c #1F1E31",
"/$	c #653B58",
"($	c #6A3D5C",
"_$	c #363136",
":$	c #73405A",
"<$	c #8F4859",
"[$	c #8D4759",
"}$	c #673D5C",
"|$	c #673C5B",
"1$	c #683D5B",
"2$	c #191D2F",
"3$	c #B79976",
"4$	c #05152C",
"5$	c #81445A",
"6$	c #864559",
"7$	c #854559",
"8$	c #AC5256",
"9$	c #984B58",
"0$	c #B15356",
"a$	c #594A48",
"b$	c #866D60",
"c$	c #7D425A",
"d$	c #894659",
"e$	c #7D435A",
"f$	c #312439",
"g$	c #816A5E",
"h$	c #493E3F",
"i$	c #876F62",
"j$	c #3F2A40",
"k$	c #AF5356",
"l$	c #74405A",
"m$	c #713F5B",
"n$	c #5C3752",
"o$	c #221F32",
"p$	c #171D2E",
"q$	c #81695E",
"r$	c #967A6A",
"s$	c #2A2833",
"t$	c #2E2337",
"u$	c #743F58",
"v$	c #B45455",
"w$	c #914958",
"x$	c #583550",
"y$	c #332E36",
"z$	c #7B655A",
"A$	c #2B2236",
"B$	c #844459",
"C$	c #8A4759",
"D$	c #6E3E5B",
"E$	c #5A3651",
"F$	c #3D353A",
"G$	c #63514D",
"H$	c #3E2940",
"I$	c #412B43",
"J$	c #442C43",
"K$	c #312438",
"                                                                                                                        ",
"                                                                                                                        ",
"                                                                                                                        ",
"                                                                                                                        ",
"                                                                                                                        ",
"                                                                                                                        ",
"                                                                                                                        ",
"                                                            . . . . . . .                                               ",
"                                                        . + @ # $ % # & + .                                             ",
"                                                      . * = - ; > , ' - = ) . .                                         ",
"                                                    . ! ' ' ~ { ] ' ' ^ / ( _ .                                         ",
"                                                    : , ' < [ } | ' 1 2 3 4 5 6 7                                       ",
"                                                  . 8 ' ' 9 0 - ' a 2 b c 4 4 d e                                       ",
"            f g                                   . h i ' j k ' ' 9 4 b l m n d e                                       ",
"            o p q                                 : r 9 ' s t ' ' u 4 4 v w b x .                                       ",
"            . y z A B                             : C ' ' t t ' ' D 2 4 E F 4 G .                                       ",
"            . H I J K                             . L ' ' M 9 ' ' a 2 4 N O 4 P .                                       ",
"            . Q R I S T                             U V M a a a W k 4 X Y Z `  .                                        ",
"            . Q ..+.@.#.                            . $.%.&.*.*.*.=.-.;.>.,.'.                                          ",
"            . ).!.~.{.].^.                            . /.(._.:.:.<.[.}.|.1..                                           ",
"              2.3.4.5.6.7.                                8.9.. /.0.a.|.b.c.. .                                         ",
"              . d.f f e.f..                             . g.h.i.j.k.l.m.n.o.p.q.                                        ",
"                r.s.f t.u.v.                          . . w.x.y.z.A.B.C.D.E.F.G..                                       ",
"                . H.f I.J.K.L.                      . M.N.O.P.Q.R.S.T.I U.V.W.X.Y..                                     ",
"                  Z.`. +.+++@+                      #+$+$+%+&+*+=+-+;+>+,+f '+)+!+.                                     ",
"                  ~+{+`.]+++^+/+                  . (+$+_+f f :+<+<+<+<+[+f }+|+1+2+. .                                 ",
"                  . 3+f 4+5+6+7+                  8+9+0+a+f b+c+d+d+d+e+f+f f g+h+i+. j+                                ",
"                    k+l+m+n+o+p+q+  { r+        . s+t+`.f `.u+v+I I I w+<+x+f y+|+z+A+B+C+                              ",
"                      D+E+F+G+f H+I+| J+.       . K+$+L+M+f N+O+P+I Q+R+<+S+f T+|+U+V+W+a+X+V+                          ",
"                      Y+m+Z+`+ @.@+@@@#@$@    . 8.%@h+&@*@=@=@-@;@I >@,@<+S+a+'@)@$+!@. ~@s.{@8+.                       ",
"                      . ]@$+^@T  +/@(@_@:@.   . #+U+|+<@[@}@|@1@1@I I 2@<+S+f f ,+3@4@Y.5@6@7@8@9@0@.                   ",
"                      . a@b@c@d@e@f@E g@h@    . #+U+|+f f f+i@2@j@j@I R+<+S+f f k@$+l@Y.m@$+n@$+o@4+p@q@.               ",
"                    r@s@t@u@v@w@x@=.4 y@/.    . #+U+|+f f f+<+P+z@z@z@<+<+<+A@,+0+$+B@Y.m@$+$+C@D@E@F@G@H@I@J@          ",
"                  . K@L@M@N@O@P@Q@R@S@{ .     . #+1+|+T@f U@R+V@W@X@<+Y@Z@`@f }+y+ #.#M@m@$+$+U++#@###$#%#&#*#          ",
"                    . /.=#-#|.;#c.>#U+z+.     . . ,#t+'#f `@:+)#I !#~#{#]#^#/#f ,+(#X._#m@$+$+$+$+$+:#<#[#}#k+          ",
"                      |#1#2#M@r.3#,+4#U+a@.   . L.5#$+6#7#8#<+9#I I 0#<+<+S+f a#b#$+N.c#b@$+$+$+$+$+$+d#A.e#k+          ",
"                      . . . . f#f f g#h#i#      . j#$+$+$+k#l#S+m#n#o#<+<+p#q#r#s#U+t#u#$+$+$+$+$+$+$+v#w#s.k+          ",
"                            . x#B+ @y#z#.       . A#B#$+C#g#f `@A@:+D#f+/#L+E#F#h+G#V+W.$+$+$+$+$+$+$+$+H#s.k+          ",
"                            . 8.I#J#Y.K#.         . a@h#h+L#f f Y@D#U@M#f _+$+0+N#Y.O#P#$+$+$+$+$+$+$+$+Q# @k+          ",
"                                . . R#S#T#.         . z#h#|+U#f V#W#a+<+X#|+Y#Z#8.`# $L..$$+$+$+$+$+$+$++$ @k+          ",
"                                    . w@.         . 0@7 @$#$$$%$%$%$%$&$*$=$-$;$>$|.P@,$'$$+$+$+$+$+$+)$!$ @k+          ",
"                                                  . ~${$>.]$e e e e e e ^$N@/$($|.|.~$R#8.W.$+$+$+$+$+d#_$L#k+          ",
"                                                . ;$P@:$<$[$}$d d d d ($($|.|.|$1$|$($2$. W.$+$+$+$+$+d#Z#3$4$          ",
"                                                . e S#5$4 4 4 4 4 4 b 6$7$7$7$8$9$0$|.2#. W.$+$+$+$+$+d#a$b$8+          ",
"                                                  R#{$c$4 4 4 4 4 4 4 4 4 4 4 d$e$S#S#f$. g$$+$+$+$+0+h$i$q+            ",
"                                                  . j$1$k$4 4 4 4 4 4 4 4 4 4 l$m$|.n$o$  p$q$$+$+r$s$!@t#              ",
"                                                    0@t$u$v$4 4 4 4 4 4 4 4 v$w$|.x$0..     8.9+$+y$z$8.                ",
"                                                    . . A$S#B$b 4 4 4 4 4 C$D$|.|.E$. .       V+F$G$h$                  ",
"                                                      . 0@R#H$I$I$I$I$I$I$J$J$J$K$M@            . I#                    ",
"                                                    . . . . . . . . . . . . . . .                                       ",
"                                                    . . .                 . . .                                         ",
"                                                      . . .               . . .                                         ",
"                                                    . . . .               . . .                                         ",
"                                                    . . . .               . . . .                                       ",
"                                                                                                                        ",
"                                                                                                                        ",
"                                                                                                                        ",
"                                                                                                                        ",
"                                                                                                                        ",
"                                                                                                                        "};
