/* XPM */
static char * player_xpm[] = {
"60 60 628 2",
"  	c None",
". 	c #161C2E",
"+ 	c #1A1D2E",
"@ 	c #A74E50",
"# 	c #061A2D",
"$ 	c #151C2E",
"% 	c #AE5152",
"& 	c #B57564",
"* 	c #A97161",
"= 	c #AA7161",
"- 	c #222130",
"; 	c #101A2D",
"> 	c #342230",
", 	c #924549",
"' 	c #B85555",
") 	c #BA645C",
"! 	c #C17868",
"~ 	c #C5846E",
"{ 	c #BC6B60",
"] 	c #BF7063",
"^ 	c #C3826D",
"/ 	c #914A4A",
"( 	c #4B2734",
"_ 	c #1D1F34",
": 	c #944958",
"< 	c #B65555",
"[ 	c #BD6C61",
"} 	c #C5846F",
"| 	c #C5836E",
"1 	c #C27B69",
"2 	c #BD6D61",
"3 	c #C6846F",
"4 	c #563D3E",
"5 	c #00192C",
"6 	c #BA645D",
"7 	c #C07566",
"8 	c #B95B58",
"9 	c #6F363E",
"0 	c #121B2D",
"a 	c #613956",
"b 	c #80435A",
"c 	c #B35455",
"d 	c #A84F50",
"e 	c #AD6A5D",
"f 	c #B17664",
"g 	c #BA7B68",
"h 	c #BA655D",
"i 	c #B37363",
"j 	c #926256",
"k 	c #101B2E",
"l 	c #111B2D",
"m 	c #6C3D5A",
"n 	c #894659",
"o 	c #B55555",
"p 	c #522B37",
"q 	c #1F1D2F",
"r 	c #262230",
"s 	c #6F4B47",
"t 	c #B4615A",
"u 	c #974B4C",
"v 	c #BD7264",
"w 	c #884145",
"x 	c #86455A",
"y 	c #B55455",
"z 	c #703D56",
"A 	c #633A57",
"B 	c #4A2E47",
"C 	c #141B2E",
"D 	c #6B4945",
"E 	c #C4816D",
"F 	c #6E4845",
"G 	c #A06B5C",
"H 	c #8D4247",
"I 	c #492E47",
"J 	c #7E435A",
"K 	c #B25455",
"L 	c #A65057",
"M 	c #683D5B",
"N 	c #693D5B",
"O 	c #4B2F48",
"P 	c #141C2E",
"Q 	c #65343C",
"R 	c #C37E6B",
"S 	c #BB655D",
"T 	c #00112A",
"U 	c #C17666",
"V 	c #95464A",
"W 	c #272034",
"X 	c #703F5B",
"Y 	c #6D3E5B",
"Z 	c #6A3E5C",
"` 	c #33253A",
" .	c #2F2233",
"..	c #8A4659",
"+.	c #BC685E",
"@.	c #783940",
"#.	c #B15D5B",
"$.	c #623A58",
"%.	c #171C2E",
"&.	c #101B2C",
"*.	c #482D45",
"=.	c #0D1A2C",
"-.	c #A94F50",
";.	c #723B4B",
">.	c #412C46",
",.	c #994B59",
"'.	c #3C283E",
").	c #67384B",
"!.	c #994950",
"~.	c #894145",
"{.	c #0D182D",
"].	c #302C35",
"^.	c #1B1E2F",
"/.	c #191D2F",
"(.	c #974953",
"_.	c #0B1B2D",
":.	c #86414B",
"<.	c #00142B",
"[.	c #00112C",
"}.	c #4A413C",
"|.	c #A4876E",
"1.	c #A0846D",
"2.	c #322437",
"3.	c #633756",
"4.	c #2E1E36",
"5.	c #0A1329",
"6.	c #0F142A",
"7.	c #9F8E78",
"8.	c #DDC5A3",
"9.	c #7B7C7F",
"0.	c #222635",
"a.	c #D5B583",
"b.	c #201B24",
"c.	c #F3F1EF",
"d.	c #F8F4F0",
"e.	c #F8F7F8",
"f.	c #F7F7F7",
"g.	c #F9F8F7",
"h.	c #FCFAF8",
"i.	c #BBA483",
"j.	c #1B2031",
"k.	c #D5B584",
"l.	c #D6B788",
"m.	c #745F56",
"n.	c #68554F",
"o.	c #333135",
"p.	c #9A8D6D",
"q.	c #F1E5BA",
"r.	c #F1E6BA",
"s.	c #F1E5B9",
"t.	c #DDC39E",
"u.	c #DDC49F",
"v.	c #E4D0A2",
"w.	c #ECDBA6",
"x.	c #DFD3A0",
"y.	c #C8AB7D",
"z.	c #534940",
"A.	c #F5EFE7",
"B.	c #9B9794",
"C.	c #7D665B",
"D.	c #967A6B",
"E.	c #D9BB88",
"F.	c #F0E2AB",
"G.	c #EFE1AB",
"H.	c #EFE1AC",
"I.	c #FCF9EF",
"J.	c #FBF8EE",
"K.	c #FBF8EF",
"L.	c #EBDAA6",
"M.	c #D5B684",
"N.	c #CFB080",
"O.	c #0F192D",
"P.	c #D3B381",
"Q.	c #F4EEE5",
"R.	c #FFFEFD",
"S.	c #83816E",
"T.	c #131B2D",
"U.	c #997C6C",
"V.	c #AE9173",
"W.	c #DCC28F",
"X.	c #F0E2AF",
"Y.	c #F5EDD0",
"Z.	c #F5ECCE",
"`.	c #FFFFFF",
" +	c #F0E3B0",
".+	c #E6D29E",
"++	c #635547",
"@+	c #000023",
"#+	c #F1EAE1",
"$+	c #F5F2D6",
"%+	c #817E62",
"&+	c #876F62",
"*+	c #977B6B",
"=+	c #BB9D78",
"-+	c #DDC290",
";+	c #F0E2AC",
">+	c #F3E9C3",
",+	c #CBC6B5",
"'+	c #6C5A43",
")+	c #E4CE9A",
"!+	c #DABE8B",
"~+	c #D6B684",
"{+	c #B9A87A",
"]+	c #FEFDFC",
"^+	c #EDE5B1",
"/+	c #817E63",
"(+	c #6B5851",
"_+	c #C6A77D",
":+	c #D6B785",
"<+	c #EEE0AA",
"[+	c #EFE0A9",
"}+	c #CAC3AC",
"|+	c #D2B281",
"1+	c #F3E9CC",
"2+	c #EFE2B2",
"3+	c #000629",
"4+	c #BD9F70",
"5+	c #FAF9EC",
"6+	c #FFFFFE",
"7+	c #D8BB8F",
"8+	c #E2D19B",
"9+	c #282733",
"0+	c #987B6B",
"a+	c #D6B683",
"b+	c #D7B886",
"c+	c #E9D7A2",
"d+	c #EDDEA9",
"e+	c #F9F4E4",
"f+	c #D2D3D4",
"g+	c #594D42",
"h+	c #EDDFA9",
"i+	c #74624D",
"j+	c #ABACAE",
"k+	c #FAF8EB",
"l+	c #F0E6D8",
"m+	c #D7BA87",
"n+	c #D9BF8B",
"o+	c #716F59",
"p+	c #9E826D",
"q+	c #D6B784",
"r+	c #EFE2AD",
"s+	c #F2E7BF",
"t+	c #C8BF9F",
"u+	c #524840",
"v+	c #D4B482",
"w+	c #F5EFE2",
"x+	c #989592",
"y+	c #000026",
"z+	c #F3EFCF",
"A+	c #EDE5AD",
"B+	c #D7B987",
"C+	c #6C6753",
"D+	c #3E3838",
"E+	c #151B2E",
"F+	c #BFA17A",
"G+	c #F9F3E0",
"H+	c #CBCBCC",
"I+	c #C4A779",
"J+	c #E2D29F",
"K+	c #888066",
"L+	c #ADA880",
"M+	c #EDE6AC",
"N+	c #E5D7A0",
"O+	c #CDAE7E",
"P+	c #212330",
"Q+	c #BFA276",
"R+	c #796751",
"S+	c #232430",
"T+	c #1A1E2F",
"U+	c #453B3E",
"V+	c #826A5E",
"W+	c #A58870",
"X+	c #BA9C78",
"Y+	c #BFA377",
"Z+	c #675949",
"`+	c #615446",
" @	c #625547",
".@	c #6D6856",
"+@	c #6D6855",
"@@	c #76777C",
"#@	c #11192D",
"$@	c #0F182D",
"%@	c #000C2A",
"&@	c #E6E0A7",
"*@	c #6C5D4B",
"=@	c #C0A377",
"-@	c #C8AA7C",
";@	c #000E2B",
">@	c #E5D39F",
",@	c #C7BC90",
"'@	c #0A152C",
")@	c #242732",
"!@	c #D1C596",
"~@	c #000429",
"{@	c #ABA67F",
"]@	c #EFE8AE",
"^@	c #AA9872",
"/@	c #C9AB7C",
"(@	c #282832",
"_@	c #2B2030",
":@	c #452734",
"<@	c #BCA075",
"[@	c #C6A97B",
"}@	c #000C2B",
"|@	c #5A4A48",
"1@	c #CDAD80",
"2@	c #D6B885",
"3@	c #E1CB97",
"4@	c #F1E4AD",
"5@	c #CEC294",
"6@	c #BFB48A",
"7@	c #BEB386",
"8@	c #A7A8AA",
"9@	c #3A3537",
"0@	c #D8B886",
"a@	c #F2E6BA",
"b@	c #817A62",
"c@	c #1E2230",
"d@	c #E0D9A3",
"e@	c #A8A47D",
"f@	c #8E795C",
"g@	c #857157",
"h@	c #352231",
"i@	c #B85656",
"j@	c #96474A",
"k@	c #522335",
"l@	c #BB9F75",
"m@	c #8C785B",
"n@	c #08162C",
"o@	c #181D2E",
"p@	c #8D7365",
"q@	c #95796A",
"r@	c #EFE2AC",
"s@	c #EFE1AA",
"t@	c #FCF9F1",
"u@	c #1E2332",
"v@	c #F1E6CB",
"w@	c #F1E6BB",
"x@	c #A49B78",
"y@	c #999573",
"z@	c #F0E9AE",
"A@	c #614C4C",
"B@	c #D8B785",
"C@	c #C9AA7C",
"D@	c #B75555",
"E@	c #985150",
"F@	c #705C55",
"G@	c #9B7E6C",
"H@	c #AC9072",
"I@	c #826F56",
"J@	c #000A2A",
"K@	c #00112B",
"L@	c #977A6B",
"M@	c #F6EECF",
"N@	c #594D43",
"O@	c #D8BA8C",
"P@	c #FAF5E6",
"Q@	c #E9D7A1",
"R@	c #9F9271",
"S@	c #262631",
"T@	c #DCD39E",
"U@	c #BAA986",
"V@	c #5E5244",
"W@	c #D7B684",
"X@	c #988261",
"Y@	c #B65455",
"Z@	c #C58D6E",
"`@	c #BDA176",
" #	c #BEA276",
".#	c #DBC28E",
"+#	c #9C8463",
"@#	c #7C7960",
"##	c #646251",
"$#	c #6B5C4B",
"%#	c #D4B483",
"&#	c #FDFBF1",
"*#	c #0C152A",
"=#	c #816D53",
"-#	c #ECDDA7",
";#	c #000027",
">#	c #483339",
",#	c #674644",
"'#	c #71614D",
")#	c #E4D49D",
"!#	c #6D5952",
"~#	c #AF956E",
"{#	c #CEAF7F",
"]#	c #B85D59",
"^#	c #B75656",
"/#	c #D5B683",
"(#	c #D1B281",
"_#	c #645748",
":#	c #554B41",
"<#	c #3D3D3C",
"[#	c #B9B387",
"}#	c #E5DDA5",
"|#	c #BCB488",
"1#	c #05142C",
"2#	c #FAFAFA",
"3#	c #FBF8F2",
"4#	c #92886B",
"5#	c #111A2D",
"6#	c #8A5951",
"7#	c #C4806C",
"8#	c #A14D4E",
"9#	c #242531",
"0#	c #CBAC7D",
"a#	c #75644F",
"b#	c #2D2935",
"c#	c #D7B784",
"d#	c #9F8765",
"e#	c #B85E59",
"f#	c #B75957",
"g#	c #D7B986",
"h#	c #CAAC7D",
"i#	c #1E212F",
"j#	c #A18B68",
"k#	c #AB916B",
"l#	c #50463F",
"m#	c #C2A578",
"n#	c #D3B482",
"o#	c #F0E3B2",
"p#	c #F2E7BD",
"q#	c #F1E4B5",
"r#	c #DCC18E",
"s#	c #D2B585",
"t#	c #292832",
"u#	c #936356",
"v#	c #904548",
"w#	c #432B35",
"x#	c #9F4B4D",
"y#	c #605345",
"z#	c #D1B181",
"A#	c #7F675D",
"B#	c #D3B382",
"C#	c #B85C58",
"D#	c #BE6E62",
"E#	c #EAE0A7",
"F#	c #867358",
"G#	c #B3AE84",
"H#	c #AA906A",
"I#	c #5A4E43",
"J#	c #CABE92",
"K#	c #F0E3B3",
"L#	c #F2E8C1",
"M#	c #E8DAA6",
"N#	c #302B34",
"O#	c #3B283E",
"P#	c #9A6659",
"Q#	c #C5816D",
"R#	c #8B4246",
"S#	c #06172D",
"T#	c #CFB07F",
"U#	c #7B6952",
"V#	c #1F2130",
"W#	c #987C6C",
"X#	c #695650",
"Y#	c #C07465",
"Z#	c #D2A985",
"`#	c #DDC792",
" $	c #DCC490",
".$	c #867258",
"+$	c #A08765",
"@$	c #AB916C",
"#$	c #141C2D",
"$$	c #58354F",
"%$	c #201E31",
"&$	c #02102B",
"*$	c #594C41",
"=$	c #82745B",
"-$	c #958D6E",
";$	c #2C2D35",
">$	c #603955",
",$	c #4F304A",
"'$	c #512935",
")$	c #BD675F",
"!$	c #8C4247",
"~$	c #00102B",
"{$	c #896F62",
"]$	c #00132A",
"^$	c #CC9D76",
"/$	c #BC6D5E",
"($	c #B65454",
"_$	c #B9605A",
":$	c #C99577",
"<$	c #E3D29B",
"[$	c #D9BD8A",
"}$	c #B29475",
"|$	c #0E1B2D",
"1$	c #9A4B57",
"2$	c #51314B",
"3$	c #35253B",
"4$	c #141B2D",
"5$	c #4F314A",
"6$	c #934959",
"7$	c #7C425A",
"8$	c #492E46",
"9$	c #562D38",
"0$	c #944649",
"a$	c #8F4857",
"b$	c #01162A",
"c$	c #07162C",
"d$	c #52324B",
"e$	c #6F3949",
"f$	c #793B41",
"g$	c #3D3738",
"h$	c #D6B583",
"i$	c #D3AF84",
"j$	c #C89176",
"k$	c #C4876C",
"l$	c #D5B482",
"m$	c #B09374",
"n$	c #AC916E",
"o$	c #784159",
"p$	c #984B58",
"q$	c #74405A",
"r$	c #5C3652",
"s$	c #0F1B2C",
"t$	c #4D3048",
"u$	c #6F3F5B",
"v$	c #683D5C",
"w$	c #0E1B2C",
"x$	c #473C3F",
"y$	c #564846",
"z$	c #3F2332",
"A$	c #914549",
"B$	c #72405B",
"C$	c #6A3D5B",
"D$	c #0C1A2C",
"E$	c #4F314C",
"F$	c #7A3B41",
"G$	c #3E3738",
"H$	c #E7DAA2",
"I$	c #EEE8AD",
"J$	c #D0A681",
"K$	c #CEA47A",
"L$	c #B19374",
"M$	c #733F59",
"N$	c #B45455",
"O$	c #9C4C58",
"P$	c #79415A",
"Q$	c #6C3E5B",
"R$	c #B15356",
"S$	c #76415A",
"T$	c #34253A",
"U$	c #9E826E",
"V$	c #A68A6E",
"W$	c #1D202F",
"X$	c #1C1D30",
"Y$	c #5A3551",
"Z$	c #3F2940",
"`$	c #171D2E",
" %	c #C1A478",
".%	c #D8BC89",
"+%	c #DFC999",
"@%	c #B9615B",
"#%	c #BA655B",
"$%	c #D0A87C",
"%%	c #BC9E79",
"&%	c #0C1B2D",
"*%	c #A95055",
"=%	c #7D425A",
"-%	c #B25355",
";%	c #AA5156",
">%	c #4F2B37",
",%	c #4B4040",
"'%	c #181C2F",
")%	c #613955",
"!%	c #B89C72",
"~%	c #DFCB96",
"{%	c #E0CA99",
"]%	c #C17A68",
"^%	c #B85F59",
"/%	c #857056",
"(%	c #9E8665",
"_%	c #AB926C",
":%	c #693D5A",
"<%	c #77415A",
"[%	c #B05356",
"}%	c #AF5355",
"|%	c #422736",
"1%	c #09172C",
"2%	c #937769",
"3%	c #D2B282",
"4%	c #CEAE7F",
"5%	c #0B172D",
"6%	c #CDA078",
"7%	c #C17968",
"8%	c #B85B58",
"9%	c #72383F",
"0%	c #6F5A54",
"a%	c #AA916B",
"b%	c #653B59",
"c%	c #673C5A",
"d%	c #673C59",
"e%	c #754059",
"f%	c #6D3B52",
"g%	c #2B2235",
"h%	c #272632",
"i%	c #987C6B",
"j%	c #AA8E71",
"k%	c #6F5F4C",
"l%	c #5B4F43",
"m%	c #B75856",
"n%	c #715D55",
"o%	c #786259",
"p%	c #482D46",
"q%	c #09162C",
"r%	c #625546",
"s%	c #C79270",
"t%	c #775852",
"u%	c #80695D",
"v%	c #0A172C",
"w%	c #6C3E5D",
"x%	c #645647",
"y%	c #CFA87C",
"z%	c #402633",
"A%	c #715C54",
"B%	c #605346",
"C%	c #B45454",
"D%	c #382432",
"E%	c #363037",
"F%	c #121A2D",
"G%	c #4D2935",
"H%	c #2F2130",
"I%	c #8E7365",
"J%	c #443A3D",
"K%	c #212230",
"                                                                                                                        ",
"                                                                                                                        ",
"                                                                                                                        ",
"                                                                                                                        ",
"                                                                                                                        ",
"                                                                                                                        ",
"                                                                                                                        ",
"                                                                                                                        ",
"                                        . + @ @ # . .                                                                   ",
"                                      . . $ % & * = - ; .                                                               ",
"                                    $ > , ' ) ! ~ { ] ^ / (                                                             ",
"                                  . _ : < [ } | 1 2 ~ | ~ 3 4                                                           ",
"                                . 5 < < < < ~ | | | 6 7 | | 8 9                                                         ",
"                                0 a b c < d e f g | | h i | | j k                                                       ",
"                                l m n o p q . . r s | | t u ~ v w                                                       ",
"                                l x < y z A A B . C D E | F G 3 H .                                                     ",
"                                $ I J K L M N N O . P Q R S T U V .                                                     ",
"                                  W X n Y N N Z ` . .  ...+.@.#.$.%.                                                    ",
"                                  . &.*.B B B =..   . . -.;.>.,.'.                                                      ",
"                                    . . . . . .     . . d ).!.~..                                                       ",
"                                                {.].^./.(._.:.<.[..                                                     ",
"                                            . }.|.1.2.3.4.5.6.7.8.9.0.                                  a.              ",
"                                          . . b.c.d.e.e.f.f.f.g.h.i.j..                               k.l.              ",
"                                          . m.n.o.p.q.r.s.t.u.v.w.x.y.z..                           k.A.B.              ",
"                                        . . C.D.E.F.G.G.G.H.I.J.K.L.M.N.O.                        P.Q.R.S.              ",
"                                        . T.U.V.a.W.G.X.Y.Y.Z.`.`.`. +.+++                      @+#+`.$+%+              ",
"                                        . &+*+=+a.-+;+G.G.G.G.>+,+'+)+G.!+[.                  ~+{+R.]+^+/+              ",
"                                        . (+*+_+a.a.:+<+G.G.[+Y.}+[.|+1+2+3+                  4+5+6+7+8+/+              ",
"                                      . 9+0+D.a+a.a.a.b+c+d+e+`.f+. g+b+h+i+                . j+k+l+m+n+o+              ",
"                                      . 9+0+p+a+a.a.a.a.q+G.r+s+t+. u+v+w+x+C               y+z+A+~+B+C+.               ",
"                        . D+E+        . 9+0+F+a.a.a.a.a.q+G.G.G+H+. C I+J+K+.             . L+M+N+a.O+P+                ",
"                        . Q+R+S+      . T+U+V+W+X+Y+Z+`+ @.@+@@@5.. . #@$@C .             %@&@N+a.a.*@$                 ",
"                        . O.=@-@;@.   . . m.0+=+a.a.>@,@'@E+. . . . . . )@!@~@.         . {@]@^@a./@(@                  ",
"                        _@:@%@<@[@}@. . . |@*+1@a+a+2@3@4@5@6@7@8@. . 9@0@a@b@.         c@d@e@f@a+g@.                   ",
"                        h@i@j@k@l@-@m@n@. o@p@q@q@F+a.a.M.r@s@t@`.u@$@O+v@w@x@.       . y@z@A@B@C@S+                    ",
"                        h@< < D@E@F@G@H@I@J@K@p@L@~+a.a.a.c+G.s@M@u@N@O@P@Q@R@.       S@T@U@V@W@X@.                     ",
"                        h@< < < Y@Z@`@ #=@.#+#@###$#%#a.a.a.r@[+&#*#=#-#G.;+;#>#,#P   '#)#!#~#{##@                      ",
"                        h@< < ]#^#/#(#_#:#<#[#}#|#1#-@a.a.a.r@G.X.2#3#G.G.4#5#6#7#8#9#0#a#b#c#d#.                       ",
"                        h@< < e#f#g#g#a.a.h#i#j#k#. S@l#m#n#r@G.o#p#q#r#s#t#u#v#w#x#y#z#S@A#B#}@                        ",
"                        h@< < C#D#M+E#q+a.a.F#G#H#. . . $@I#J#<+K#L#H.M#N#O#P#Q#R#S#T#U#V#W#X#.                         ",
"                        h@< < < Y#Z#`# $a.a..$+$@$#$$$%$#$. &$*$=$;+-$;$>$,$'$)$D@!$~$C {$W#]$.                         ",
"                        D+^$/$($_$:$<$M+[$a.}$d#@$|$1$Y N 2$3$T.%.y+4$5$6$7$8$9$0$i@a$5$b$c$d$e$f$                      ",
"                        g$h$/#i$j$k$l$l$a.a.m$n$@$T.o$D@p$q$N r$O#s$t$u$< v$w$x$y$z$A$B$C$8$D$E$F$.                     ",
"                        G$a+a.H$I$J$K$/#a.a.L$=+@$T.M$N$< < O$P$N N Q$R$S$T$c$U.U$V$W$X$Y$2$Z$` .                       ",
"                        `$ %a..%<$+%@%#%$%a..$%%@$&%*%< < < < < 7$=%-%;%>%. c$*+a.a.0#,%$ '%)%$ .                       ",
"                        . !%a.:+~%{%| ]%1 ^%/%(%_%T.:%<%[%< < < < < }%|%. . 1%2%3%a.a.4%5%. . .                         ",
"                          S+a.a.a.6%S 7%8%< 9%0%a%T.b%c%d%e%e%e%e%f%g%. .   . h%i%j%z#k%E+                              ",
"                          . l%~+a.M.m%< < < 9%n%o%. #$#$#$#$#$#$#$P .     . 8$p%5#O.q%E+                                ",
"                            . r%c#a.s%< < < t%u%v%. . .       . . .       . ` w%T.                                      ",
"                              %.x%W@y%< o z%A%c$. . . .     . . . .         . &..                                       ",
"                                %.B%$%C%D%E%F%.     . .     . . .                                                       ",
"                                  . G%H%I%J%    . . . .     . . . .                                                     ",
"                                    . . K%                                                                              ",
"                                      .                                                                                 ",
"                                                                                                                        ",
"                                                                                                                        ",
"                                                                                                                        ",
"                                                                                                                        ",
"                                                                                                                        ",
"                                                                                                                        "};
