/* XPM */
static char * wall3_xpm[] = {
"60 60 704 2",
"  	c #7AA863",
". 	c #90AF5E",
"+ 	c #AAB65A",
"@ 	c #BDBA5B",
"# 	c #BEBA5B",
"$ 	c #B5B958",
"% 	c #A5B55A",
"& 	c #87AE5D",
"* 	c #8EB257",
"= 	c #86AE5D",
"- 	c #83AD5E",
"; 	c #97B751",
"> 	c #9BB94E",
", 	c #99B850",
"' 	c #92B455",
") 	c #9AB84F",
"! 	c #96B652",
"~ 	c #87AF5C",
"{ 	c #7BA962",
"] 	c #84AD5D",
"^ 	c #7AA962",
"/ 	c #86AC60",
"( 	c #BBB95B",
"_ 	c #BFBA5B",
": 	c #B7B959",
"< 	c #ACB759",
"[ 	c #89AF5D",
"} 	c #8DB258",
"| 	c #88AF5C",
"1 	c #82AC5F",
"2 	c #93B454",
"3 	c #93B455",
"4 	c #98B751",
"5 	c #9AB94E",
"6 	c #98B750",
"7 	c #8CB159",
"8 	c #7CA962",
"9 	c #82AC5E",
"0 	c #85AD5D",
"a 	c #7DAA61",
"b 	c #7EAA62",
"c 	c #A0B45B",
"d 	c #B6B85B",
"e 	c #BAB95A",
"f 	c #B1B958",
"g 	c #90B05C",
"h 	c #93B554",
"i 	c #8BB159",
"j 	c #8EB159",
"k 	c #A2B657",
"l 	c #A9B856",
"m 	c #96B358",
"n 	c #91B258",
"o 	c #90B356",
"p 	c #8EB258",
"q 	c #99B84F",
"r 	c #88AF5B",
"s 	c #94B554",
"t 	c #8BB059",
"u 	c #8BB05A",
"v 	c #95B653",
"w 	c #9BB458",
"x 	c #ADB955",
"y 	c #98B458",
"z 	c #93B259",
"A 	c #91B356",
"B 	c #97B752",
"C 	c #9AB94F",
"D 	c #8BB15A",
"E 	c #81AC5F",
"F 	c #8AB05A",
"G 	c #94B553",
"H 	c #91B455",
"I 	c #95B358",
"J 	c #ACB955",
"K 	c #9DB557",
"L 	c #95B359",
"M 	c #A0B558",
"N 	c #8BA666",
"O 	c #7DA169",
"P 	c #90B05A",
"Q 	c #84A664",
"R 	c #85A764",
"S 	c #84AD5E",
"T 	c #80AB5F",
"U 	c #86AE5C",
"V 	c #7CAA61",
"W 	c #89B05A",
"X 	c #98B652",
"Y 	c #90AF5A",
"Z 	c #92B158",
"` 	c #96B554",
" .	c #90B059",
"..	c #9BB84F",
"+.	c #A3B854",
"@.	c #91A964",
"#.	c #7DA16A",
"$.	c #8BAC5F",
"%.	c #8AAC5F",
"&.	c #81A467",
"*.	c #87AD5D",
"=.	c #7EAA61",
"-.	c #8FB357",
";.	c #8DB158",
">.	c #97B653",
",.	c #A2B951",
"'.	c #97AD60",
").	c #80A269",
"!.	c #7FA269",
"~.	c #88AD5E",
"{.	c #7FAB60",
"].	c #B9B75E",
"^.	c #98A66A",
"/.	c #6F9572",
"(.	c #94A46B",
"_.	c #A6AD65",
":.	c #85A36A",
"<.	c #94AE61",
"[.	c #7DAA62",
"}.	c #85AE5D",
"|.	c #86AF5C",
"1.	c #8BA568",
"2.	c #97A56A",
"3.	c #869E6E",
"4.	c #88A06C",
"5.	c #879F6E",
"6.	c #A6B25E",
"7.	c #BCB85D",
"8.	c #A5AC66",
"9.	c #729672",
"0.	c #859E6E",
"a.	c #ACB063",
"b.	c #86A16B",
"c.	c #96AE61",
"d.	c #7EA962",
"e.	c #88B05B",
"f.	c #99B750",
"g.	c #93B257",
"h.	c #8AA765",
"i.	c #95A56A",
"j.	c #8DA16D",
"k.	c #819E6D",
"l.	c #8EA16D",
"m.	c #97AB63",
"n.	c #BCBA5A",
"o.	c #BEB95C",
"p.	c #AFB162",
"q.	c #7B9971",
"r.	c #7A9A70",
"s.	c #AAAF64",
"t.	c #8EA36B",
"u.	c #93AC63",
"v.	c #ADB45E",
"w.	c #9BB060",
"x.	c #B8B75D",
"y.	c #A1AA67",
"z.	c #B2B75A",
"A.	c #B0B956",
"B.	c #BBB85C",
"C.	c #BCB95B",
"D.	c #ABB55C",
"E.	c #A1B951",
"F.	c #80AB60",
"G.	c #8CAD60",
"H.	c #91AE60",
"I.	c #97B25C",
"J.	c #A3B45A",
"K.	c #96A866",
"L.	c #A9AF63",
"M.	c #BBB85D",
"N.	c #B9B85C",
"O.	c #B1B55E",
"P.	c #BCB85C",
"Q.	c #BCB95C",
"R.	c #BDB95C",
"S.	c #B5B75D",
"T.	c #99AF60",
"U.	c #B2B65D",
"V.	c #A8AE64",
"W.	c #AFB35F",
"X.	c #ADB954",
"Y.	c #BAB85B",
"Z.	c #AFB55D",
"`.	c #A4B853",
" +	c #88AC61",
".+	c #90AE60",
"++	c #95B05D",
"@+	c #A0B459",
"#+	c #97AA64",
"$+	c #A6AE64",
"%+	c #B7B55F",
"&+	c #B1B55D",
"*+	c #B9B75D",
"=+	c #BAB85C",
"-+	c #9DB060",
";+	c #AAB45E",
">+	c #B2B361",
",+	c #AEB955",
"'+	c #B7B95A",
")+	c #BDB95B",
"!+	c #7EA963",
"~+	c #79A863",
"{+	c #86AB62",
"]+	c #94B457",
"^+	c #A2B852",
"/+	c #ADB857",
"(+	c #A3B853",
"_+	c #97B359",
":+	c #A5B658",
"<+	c #AEB957",
"[+	c #B1B956",
"}+	c #A9B954",
"|+	c #A5B951",
"1+	c #ABB857",
"2+	c #92B15A",
"3+	c #86AD5F",
"4+	c #98B05F",
"5+	c #98AF60",
"6+	c #8AAC62",
"7+	c #83AA62",
"8+	c #81AA62",
"9+	c #8DAD60",
"0+	c #94B359",
"a+	c #A0B951",
"b+	c #ABB856",
"c+	c #A7B855",
"d+	c #92B358",
"e+	c #A3B951",
"f+	c #98B359",
"g+	c #9EB15F",
"h+	c #7DA963",
"i+	c #8BAC61",
"j+	c #94B25B",
"k+	c #9EB851",
"l+	c #87AF5B",
"m+	c #81AB60",
"n+	c #8CB05B",
"o+	c #9CB94E",
"p+	c #9FB950",
"q+	c #B0BA56",
"r+	c #AEBA55",
"s+	c #9DB94F",
"t+	c #7CA961",
"u+	c #83AC5E",
"v+	c #89AC61",
"w+	c #8AAD5F",
"x+	c #9CB94F",
"y+	c #B1BA56",
"z+	c #A0B950",
"A+	c #96B456",
"B+	c #A1B657",
"C+	c #A3B657",
"D+	c #B3B859",
"E+	c #ABB954",
"F+	c #B8BA58",
"G+	c #B5BA57",
"H+	c #B8BA59",
"I+	c #ACB954",
"J+	c #8EB357",
"K+	c #91B358",
"L+	c #A0B657",
"M+	c #9DB656",
"N+	c #BAB95B",
"O+	c #B8B85B",
"P+	c #A7B952",
"Q+	c #BABA59",
"R+	c #B3BA57",
"S+	c #B9BA59",
"T+	c #B2BA56",
"U+	c #8CB15A",
"V+	c #9CB556",
"W+	c #9BB752",
"X+	c #AFB75B",
"Y+	c #B4B75C",
"Z+	c #B1B65C",
"`+	c #9FB160",
" @	c #B1B65D",
".@	c #B2BA57",
"+@	c #ADBA54",
"@@	c #9FB951",
"#@	c #9BB94F",
"$@	c #9FB94F",
"%@	c #AAB953",
"&@	c #ABB953",
"*@	c #9EB94F",
"=@	c #99B751",
"-@	c #ABB759",
";@	c #B2B75C",
">@	c #A4B25F",
",@	c #A9B35E",
"'@	c #B5BA58",
")@	c #AFBA55",
"!@	c #A4B951",
"~@	c #97B652",
"{@	c #A2B950",
"]@	c #A1B950",
"^@	c #A5B657",
"/@	c #B3B75C",
"(@	c #98B850",
"_@	c #80AC5F",
":@	c #92B456",
"<@	c #8FAD61",
"[@	c #8EAD61",
"}@	c #93B555",
"|@	c #84AC5E",
"1@	c #91B357",
"2@	c #85AD5E",
"3@	c #161C2E",
"4@	c #8CAC61",
"5@	c #8FB258",
"6@	c #8AB05B",
"7@	c #96B553",
"8@	c #95B554",
"9@	c #91B158",
"0@	c #95B553",
"a@	c #9FB852",
"b@	c #90B257",
"c@	c #89B05B",
"d@	c #94B456",
"e@	c #95B455",
"f@	c #9AB850",
"g@	c #92B257",
"h@	c #749970",
"i@	c #88AA61",
"j@	c #7C9C6F",
"k@	c #8CA06D",
"l@	c #88A468",
"m@	c #99B652",
"n@	c #BEBA5A",
"o@	c #ACB858",
"p@	c #8CAF5D",
"q@	c #A2B952",
"r@	c #759871",
"s@	c #2A485E",
"t@	c #A7B953",
"u@	c #82A467",
"v@	c #8AA06C",
"w@	c #80A367",
"x@	c #8AA16C",
"y@	c #8FAE5D",
"z@	c #BBBA59",
"A@	c #AEB162",
"B@	c #90A26C",
"C@	c #B0B262",
"D@	c #ACB45D",
"E@	c #B2B859",
"F@	c #9EB950",
"G@	c #B6BA58",
"H@	c #27716F",
"I@	c #5AB659",
"J@	c #BDBA5A",
"K@	c #ACB856",
"L@	c #88A961",
"M@	c #7C9C6E",
"N@	c #769B6E",
"O@	c #7EA168",
"P@	c #7B9B6F",
"Q@	c #829C70",
"R@	c #B9B65E",
"S@	c #9EA968",
"T@	c #98A56A",
"U@	c #B1B360",
"V@	c #B5B85A",
"W@	c #BEB95B",
"X@	c #B3B65D",
"Y@	c #B3BA56",
"Z@	c #A5B952",
"`@	c #A8B952",
" #	c #84A565",
".#	c #88A16B",
"+#	c #819B70",
"@#	c #B6B55F",
"##	c #9AA769",
"$#	c #96A56B",
"%#	c #B7B65E",
"&#	c #A4AC66",
"*#	c #B8B65E",
"=#	c #88AB62",
"-#	c #B2B956",
";#	c #A2B755",
">#	c #9FB15F",
",#	c #A5B35E",
"'#	c #BBBA5A",
")#	c #ADB35F",
"!#	c #B0B859",
"~#	c #B6B75D",
"{#	c #93AE61",
"]#	c #A9B65A",
"^#	c #AFB955",
"/#	c #9CB851",
"(#	c #A6B55B",
"_#	c #8EAC61",
":#	c #89AF5B",
"<#	c #84AD5F",
"[#	c #9AB751",
"}#	c #B0BA55",
"|#	c #7EAA60",
"1#	c #8AB15A",
"2#	c #2F966A",
"3#	c #95B652",
"4#	c #7DA961",
"5#	c #76A466",
"6#	c #74A169",
"7#	c #78A764",
"8#	c #73A06A",
"9#	c #77A566",
"0#	c #6C9572",
"a#	c #709D6D",
"b#	c #739673",
"c#	c #96A56A",
"d#	c #91AF5F",
"e#	c #93AD61",
"f#	c #89A26B",
"g#	c #849E6E",
"h#	c #B1B361",
"i#	c #A8B953",
"j#	c #B3B957",
"k#	c #B7B85B",
"l#	c #91AF5E",
"m#	c #91B15B",
"n#	c #9FB558",
"o#	c #91AB63",
"p#	c #AEB55E",
"q#	c #B7B85A",
"r#	c #7FA963",
"s#	c #87AB62",
"t#	c #92AF5E",
"u#	c #809A49",
"v#	c #9FB851",
"w#	c #6F9352",
"x#	c #92B555",
"y#	c #709352",
"z#	c #82994C",
"A#	c #819C47",
"B#	c #989B50",
"C#	c #839D46",
"D#	c #7B994C",
"E#	c #759451",
"F#	c #7F994A",
"G#	c #7B974E",
"H#	c #7E994A",
"I#	c #869D47",
"J#	c #749153",
"K#	c #68845F",
"L#	c #75885F",
"M#	c #8A9D48",
"N#	c #9D9E4E",
"O#	c #77895F",
"P#	c #939656",
"Q#	c #A29E50",
"R#	c #949854",
"S#	c #989C4F",
"T#	c #A19E50",
"U#	c #A09D51",
"V#	c #9E9E4E",
"W#	c #9B9E4E",
"X#	c #9E9D51",
"Y#	c #759256",
"Z#	c #829553",
"`#	c #989D4D",
" $	c #8B9D48",
".$	c #859C48",
"+$	c #8E994F",
"@$	c #799355",
"#$	c #6E9352",
"$$	c #698F56",
"%$	c #6B9154",
"&$	c #688F56",
"*$	c #678E57",
"=$	c #749450",
"-$	c #709452",
";$	c #7D994A",
">$	c #76964E",
",$	c #7E9A4A",
"'$	c #829D46",
")$	c #7B994B",
"!$	c #7A984C",
"~$	c #829C47",
"{$	c #78974D",
"]$	c #668E57",
"^$	c #6C9154",
"/$	c #6A9055",
"($	c #719352",
"_$	c #709253",
":$	c #719452",
"<$	c #76A566",
"[$	c #62895B",
"}$	c #5C8260",
"|$	c #587C64",
"1$	c #61845F",
"2$	c #82A862",
"3$	c #87AB5F",
"4$	c #749352",
"5$	c #628360",
"6$	c #5F845F",
"7$	c #698E57",
"8$	c #819B47",
"9$	c #899D48",
"0$	c #A09E4F",
"a$	c #8F9D4A",
"b$	c #7F9A4A",
"c$	c #819B48",
"d$	c #79A763",
"e$	c #74A269",
"f$	c #73A16A",
"g$	c #858E5B",
"h$	c #74875F",
"i$	c #709474",
"j$	c #7B8A5C",
"k$	c #999954",
"l$	c #808C5C",
"m$	c #6C855F",
"n$	c #8C9A4E",
"o$	c #959E4B",
"p$	c #929E4A",
"q$	c #818E5B",
"r$	c #7C8A5D",
"s$	c #5C7D64",
"t$	c #7B895E",
"u$	c #838E5B",
"v$	c #939E4A",
"w$	c #959E4C",
"x$	c #889D47",
"y$	c #809B48",
"z$	c #75954F",
"A$	c #719D6C",
"B$	c #719573",
"C$	c #93A46B",
"D$	c #8FAE5F",
"E$	c #91AD61",
"F$	c #87A26B",
"G$	c #A19D51",
"H$	c #9F9C51",
"I$	c #999D4E",
"J$	c #8D9D49",
"K$	c #879D47",
"L$	c #859D47",
"M$	c #909D4A",
"N$	c #989E4D",
"O$	c #919D4A",
"P$	c #849D46",
"Q$	c #799551",
"R$	c #7B9454",
"S$	c #778D5B",
"T$	c #73875F",
"U$	c #9B9A52",
"V$	c #8B9259",
"W$	c #9D9D4F",
"X$	c #A6B952",
"Y$	c #9A9E4E",
"Z$	c #939E4B",
"`$	c #91B259",
" %	c #90A965",
".%	c #829D6F",
"+%	c #B8B85A",
"@%	c #B7BA58",
"#%	c #B4BA57",
"$%	c #909E4A",
"%%	c #929D4B",
"&%	c #8C9D49",
"*%	c #9B9D4E",
"=%	c #9C9C50",
"-%	c #999E4D",
";%	c #989D4C",
">%	c #9C9E4E",
",%	c #979E4C",
"'%	c #9F9E4F",
")%	c #A19E4F",
"!%	c #AABA53",
"~%	c #B4B957",
"{%	c #AAB954",
"]%	c #A9B953",
"^%	c #9BB850",
"/%	c #9CB850",
"(%	c #9AB653",
"_%	c #92AF5D",
":%	c #A5B659",
"<%	c #87AC60",
"[%	c #A6B659",
"}%	c #BBB95A",
"|%	c #ACB857",
"1%	c #8BAF5C",
"2%	c #82AD5E",
"3%	c #A1B55A",
"4%	c #B0B957",
"5%	c #92B15B",
"6%	c #8EB15A",
"7%	c #A4B658",
"8%	c #8FB356",
"9%	c #9DB459",
"0%	c #AFB956",
"a%	c #9AB359",
"b%	c #94B25A",
"c%	c #90B357",
"d%	c #8CB158",
"e%	c #96B359",
"f%	c #96B25A",
"g%	c #9EB557",
"h%	c #92B258",
"i%	c #87A962",
"j%	c #94B357",
"k%	c #A0B853",
"l%	c #8FAA63",
"m%	c #8DAE5D",
"n%	c #8DAD5D",
"o%	c #83A665",
"p%	c #8AAF5B",
"q%	c #91B456",
"r%	c #95AD60",
"s%	c #82A367",
"t%	c #8AAE5C",
"u%	c #94A36B",
"v%	c #6F9672",
"w%	c #A2AB66",
"x%	c #81A36A",
"y%	c #89A567",
"z%	c #92A36B",
"A%	c #85A06C",
"B%	c #839D6E",
"C%	c #A4B25D",
"D%	c #BAB75D",
"E%	c #719672",
"F%	c #A8AE65",
"G%	c #82A06B",
"H%	c #92AD61",
"I%	c #7DA962",
"J%	c #97B651",
"K%	c #8AA863",
"L%	c #90A36C",
"M%	c #889F6E",
"N%	c #809E6D",
"O%	c #899F6E",
"P%	c #95AA63",
"Q%	c #ABAF64",
"R%	c #789872",
"S%	c #789970",
"T%	c #8AA26B",
"U%	c #8FAB63",
"V%	c #B0B55D",
"W%	c #A0B15F",
"X%	c #9DA868",
"Y%	c #B3B75B",
"Z%	c #BAB85D",
"`%	c #A7B45C",
" &	c #8AAC60",
".&	c #95B25B",
"+&	c #A1B459",
"@&	c #93A767",
"#&	c #A5AD64",
"$&	c #B3B55E",
"%&	c #B7B85C",
"&&	c #9EB160",
"*&	c #AEB360",
"=&	c #ACB55D",
"-&	c #A2B853",
";&	c #92B05C",
">&	c #9EB458",
",&	c #95AA64",
"'&	c #A2AC65",
")&	c #B4B460",
"!&	c #B3B65E",
"~&	c #A1B25F",
"{&	c #B0B261",
"]&	c #A4AC65",
"^&	c #80AA62",
"/&	c #89AC62",
"(&	c #94B05E",
"_&	c #97B556",
":&	c #A5B853",
"<&	c #B1B957",
"[&	c #A4B559",
"}&	c #AFB857",
"|&	c #B2B957",
"1&	c #A3B852",
"2&	c #93B15B",
"3&	c #86AC5F",
"4&	c #9BB05F",
"5&	c #9CB060",
"6&	c #84AA62",
"7&	c #97B358",
"8&	c #A4B952",
"9&	c #AEB956",
"0&	c #AAB955",
"a&	c #A3B559",
"b&	c #ABB758",
"c&	c #99B35A",
"d&	c #86AD5E",
"e&	c #93AE60",
"f&	c #A2B25F",
"g&	c #8AAC61",
"h&	c #98B35A",
"i&	c #7AA862",
"j&	c #7EAB60",
"k&	c #ACBA54",
"l&	c #89AD5E",
"m&	c #92B357",
"n&	c #9DB558",
"o&	c #B1B859",
"p&	c #8EB259",
"q&	c #9CB558",
"r&	c #9AB557",
"s&	c #B8B85C",
"t&	c #8FB257",
"u&	c #99B557",
"  . + @ # $ % & * = - ; > , ' ) > > > ! ~ { ] ] {   ^ / % ( _ : < [ } | 1 2 > ) 3 4 > 5 > 6 7 8 9 0 a   ^ b c d _ e f g ",
"h i j k l m n o } 4 p o q ]   = r ~ s } t o 5 > u 7 v i 7 w x y z A 7 B ' i C D   E F - G p t } ) > H = ! } i I J K L A ",
"M N O P Q R S T F 1 { U 7 V * W - u 3 ) X Y Z `  ...+.@.#.$.%.&.*.=.D 0 { E -.a F ;.- ~ ' 6 ) P Y >.P 4 ,.'.).Q P !.~.{.",
"_ ].^./.(._.:.<.[.}.- |.  = 4 4 ) > X P 1.2.3.4.5.6.# 7.8.9.0.a.b.c.d.U E e.V {.! 4 , > f.g.h.i.j.k.l.m.n.o.p.q.r.s.t.u.",
"v.w.x.y.z.A.B.C.D.E.) ) F.8 G.H.I.J.K.L.M.N.O.P.Q.R.S.T.U.V.W.X.Y.# Z.`.) > ~ {  +.+++@+#+$+%+Q.&+*+R.P.=+-+;+>+$+,+'+)+",
"!+~+{+. ]+, ,.^+/+(+> 4 _+:+<+[+[+}+,.|+1+2+3+4+5+6+7+~+8+9+0+4 a+^+b+c+> C d+:+1+[+[+x ,.e+J f+& .+g+6+{+~+h+i+j+! k+,.",
"8 T   ~+  =.l+m+G.n+> > > > > o+p+q+r+s+> > q ; F - ^ E { ~+~+t+}.u+v+w+) > > > > > x+X.y+z+> > ) 6 } U ^ F.a ~+~+{ - }.",
"h ) 0 a ~ A+B+C+)+D+s+> > > o+E+F+F+G+H+I+..o * r ~ J+) i 8 }.K+L+M+N+O+E.> > > > P+G+Q+R+S+T+s+' -.F l+D , ' a 9 U+M+V+",
"> > , 6 W+X+Y+Z+`+ @.@+@,.@@! #@e+$@s+%@&@*@> > > > > > ) 6 =@-@Y+;@>@,@'@)@!@,.~@, z+{@> P+E+]@> > > > > > 5 6 , ^@/@;@",
"> > (@A _@& :@F.  8+<@[@9+v+{ 1 - -.o ' G > > > > > > > C }@}.|@1@2@3@3@3@3@9+4@8 T - 7 o H 3 C > > > > > > > G F m+5@6@",
"7@> 8@9@0@C x+a@b@t+u c@a =.8 {.] 3@3@3@3@> > > ) d@e@> 3@3@3@3@> 3@3@3@3@3@3@{.{ {.E 7 ;.s 6 > > > > e@d@f@, g@g@, > p+",
"h@i@j@k@l@m@y+n@o@p@) > ; , >.q@3@3@3@3@3@3@) 3@3@3@r@3@3@3@3@3@3@3@3@s@s@3@3@f@` @@t@!@> > , f@) X u@v@q.w@w@3.x@y@e+z@",
"A@B@C@_ ].D@# _ _ E@F@o+E+G@z@3@3@3@H@H@3@3@3@3@3@3@3@3@I@I@I@3@3@3@s@s@s@s@3@3@z@n.J@K@~@L@M@N@O@P@Q@7.R@S@T@Q.R.U@V@_ ",
"W@R._ Q+G+J@# X@)+_ Y@!@Z@P+P+3@3@H@H@H@H@3@3@3@3@3@3@I@I@I@I@I@3@3@s@s@s@s@3@3@3@`@,. #.#+#@###$#%#&#*## )+W@# G@F+_ =+",
"=#4+-#e+..;#>#!+,#'#Q+,+*@o+Z@3@3@H@H@H@H@3@3@I@I@3@3@I@I@I@I@I@3@3@3@s@s@3@3@3@3@3@)#3@3@3@3@n.@ A.!#~#{#6+]#^#o+/#(#_#",
"~+u+s , :#{ {.t+<#[#3@3@3@}#3@3@3@H@H@H@H@3@I@I@I@I@3@I@I@I@I@3@3@3@3@3@I@I@I@3@3@3@3@3@3@3@3@3@y+-.8 h+~+^ p ~@G {.8 F.",
"8 {   |#8 V B ! 1#3@3@3@3@3@3@3@3@3@H@H@H@2#I@I@I@I@I@I@I@I@I@3@3@3@3@I@I@I@I@I@3@3@3@3@3@3@3@3@3@3@3@- ^ a   8 a { c@, ",
"! s U - v } v > 3@3@3@s@s@3@3@3@3@3@3@3@3@2#I@I@I@I@I@I@I@2#2#3@3@I@I@I@I@I@I@I@2#3@3@2#2#2#3@3@3@3@3@3@* 6 p 9 i 3#7 5 ",
", , H -., ) (@> 3@3@s@s@s@s@3@3@3@I@I@3@3@2#2#I@I@I@I@2#2#2#3@3@I@I@I@I@I@I@I@I@2#3@2#2#2#2#2#3@3@s@s@3@C , ; p G C (@q ",
"F.t+  ~+{.- 4#|@3@3@s@s@s@s@3@3@2#I@I@I@3@3@2#2#2#2#I@I@I@I@I@I@I@I@I@I@I@I@I@2#2#3@2#2#2#2#2#3@s@s@s@s@3@3@3@3@{ 0 =.F.",
"u+~+~+~+~+5#6#3@3@3@3@s@s@s@3@2#2#I@I@I@3@3@2#2#2#2#I@I@I@I@I@I@I@I@I@2#2#2#I@2#2#2#2#2#2#2#2#3@s@s@s@s@3@3@3@3@3@7#6#8#",
"- {.~+~+9#0#3@3@3@3@3@3@3@3@3@2#2#I@I@I@3@3@3@3@3@2#2#I@I@I@I@I@I@I@2#2#2#2#2#I@I@I@2#2#2#2#3@3@s@s@s@3@3@3@3@3@3@a#b#c#",
"C 4 d#e#f#^.3@3@3@3@H@H@H@3@3@2#2#I@I@3@3@3@I@I@3@3@2#I@I@2#2#I@I@I@2#2#2#2#2#I@I@I@2#2#2#2#3@3@3@3@3@3@3@3@3@3@3@g#h## ",
"> $@I+i#3@3@3@3@3@H@H@H@H@H@3@2#2#2#2#3@3@I@I@I@I@3@2#I@2#2#2#2#I@I@I@2#2#2#I@I@I@I@3@3@3@3@3@2#2#2#3@3@3@3@3@3@j#k## S+",
"> > > 3@3@3@3@3@3@H@H@H@H@H@3@H@H@3@3@3@3@I@I@I@I@2#2#2#2#2#2#2#2#2#2#2#2#2#I@I@I@3@3@3@3@3@2#2#2#2#2#3@3@3@3@3@3@s+X.Z@",
"7 4 3@3@3@3@3@3@3@3@H@H@H@H@H@H@H@3@2#2#3@3@I@I@I@2#2#2#2#2#2#2#2#2#2#2#2#2#I@I@3@3@3@3@3@3@2#2#2#2#2#3@3@3@3@3@3@3@> > ",
"  l#3@3@s@s@3@3@3@3@3@H@H@H@H@H@3@3@2#2#3@3@3@3@2#2#2#2#2#2#2#2#2#H@H@H@2#2#2#2#3@2#2#2#3@3@2#2#H@H@2#3@3@H@H@H@3@3@3@m#",
"' F 3@s@s@s@s@3@s@s@3@s@H@H@H@H@3@3@2#2#2#2#3@3@2#2#2#2#2#2#2#2#H@H@H@H@H@2#2#2#2#2#2#2#2#3@3@H@H@H@3@3@H@H@H@H@H@3@3@o ",
"n#h.3@s@s@s@s@s@s@s@s@s@H@H@H@H@3@3@2#2#2#2#2#3@2#H@H@2#2#2#2#2#H@H@H@H@H@2#2#H@H@H@2#2#2#3@3@H@H@H@3@3@H@H@H@H@H@3@3@{.",
"# *#3@3@s@s@s@3@s@s@s@s@H@H@H@H@3@3@3@2#2#2#2#2#H@H@H@H@2#2#2#2#H@H@H@H@H@2#H@H@H@H@H@2#2#3@H@H@H@H@H@H@H@H@H@H@3@3@3@o#",
"p#g+x.3@3@3@3@3@s@s@s@s@H@H@H@H@H@3@3@H@H@H@H@H@H@H@H@H@2#2#2#H@H@H@H@H@H@H@H@H@H@H@H@2#2#3@H@H@H@H@H@H@H@H@H@3@3@3@q#R.",
"r#~+s#t#3@3@3@s@s@s@H@H@H@H@H@H@H@H@H@H@H@H@H@H@H@H@H@H@2#H@H@H@H@2#2#2#H@H@H@H@H@H@2#2#2#2#H@H@H@H@H@H@3@3@3@3@3@u#v#e+",
"8 {.~+3@3@3@s@s@s@s@H@H@H@s@s@H@H@H@2#2#2#H@H@H@H@H@H@2#2#H@H@H@2#2#2#2#H@H@H@H@H@H@H@2#2#H@H@H@H@H@H@H@H@3@3@3@3@3@w#U ",
"x#q y#3@3@3@s@s@s@s@H@H@s@s@s@s@H@H@2#2#2#H@H@H@H@H@2#2#2#2#H@H@2#2#2#H@H@H@H@H@H@H@H@H@H@H@H@s@s@H@H@H@H@3@s@s@3@3@3@z#",
"> > A#3@3@3@3@s@s@s@s@H@s@s@s@s@H@H@H@2#2#H@H@H@H@H@H@2#2#2#H@H@H@H@H@H@H@H@H@H@H@H@H@H@H@H@s@s@s@s@H@H@3@s@s@s@s@3@3@B#",
"> C#A#D#3@3@3@3@3@s@s@s@s@s@s@H@H@H@H@H@H@H@H@H@H@H@H@H@2#2#H@H@H@H@H@H@H@H@H@s@s@s@H@H@H@H@s@s@s@s@s@s@s@s@s@s@s@3@3@E#",
">.C#F#G#H#3@3@s@s@s@s@s@s@s@s@H@H@s@s@s@s@s@H@H@H@H@H@H@H@H@H@H@s@s@s@H@H@H@s@s@s@s@s@H@H@H@s@s@s@s@s@s@s@s@s@s@s@3@3@I#",
"h@J#K#L#3@3@s@s@s@s@s@s@s@s@s@H@s@s@s@s@s@s@s@H@H@H@H@H@H@H@s@s@s@s@s@s@H@H@s@s@s@s@s@H@H@H@H@s@s@s@s@s@s@s@s@s@3@3@M#N#",
"a.O#P#Q#3@s@s@s@s@s@3@s@s@s@s@s@s@s@s@s@s@s@s@H@s@s@H@H@H@H@H@s@s@s@s@s@s@s@s@s@s@s@s@H@H@H@H@s@s@s@3@3@3@3@3@3@3@R#S#Q#",
"T#U#Q#V#3@s@s@s@s@3@3@s@s@s@s@s@s@s@s@s@s@s@H@H@s@s@s@H@H@H@H@s@s@H@H@H@s@s@s@s@s@s@H@H@H@H@H@s@s@s@s@3@3@3@3@3@W#N#Q#X#",
"Y#Z#`# $3@3@s@s@3@3@3@s@s@s@s@s@s@3@s@s@s@H@H@H@H@s@s@H@H@H@s@s@H@H@H@H@s@s@s@s@s@s@H@H@H@H@s@s@s@s@s@s@s@s@3@3@3@.$+$@$",
"~+#$H#A#3@3@3@3@3@3@3@s@s@s@s@s@s@3@s@s@s@H@H@H@H@s@s@s@H@H@s@s@H@H@H@H@s@s@s@s@s@s@s@H@H@s@s@s@s@s@s@s@s@s@s@3@3@3@$$%$",
"{ &$*$%$$$3@3@3@3@3@3@3@s@s@s@s@3@3@s@s@s@s@H@H@s@s@s@s@s@s@s@s@H@H@H@H@3@s@s@s@s@s@s@s@s@s@s@s@3@s@s@s@s@s@s@3@3@3@=$A#",
"! h -$#$;$>$,$C#C#3@3@3@3@3@3@3@3@3@3@s@s@s@s@s@s@s@s@s@s@s@s@s@s@H@H@s@3@s@s@s@s@s@s@s@s@s@3@3@3@3@s@s@s@s@3@3@3@3@>$'$",
") q )$!$A#~$A#C#C#{$3@3@3@3@3@3@3@3@3@3@3@3@s@s@s@s@s@s@3@s@s@s@s@s@3@3@3@s@s@s@s@3@s@s@s@s@s@3@3@3@3@3@3@3@3@3@3@'$A#~$",
"E a ^ ]$^$-$/$($_$*$]$]$]$]$]$3@3@3@3@3@3@s@s@s@s@s@s@s@3@3@s@s@3@3@3@3@3@3@s@s@s@3@3@s@s@s@s@3@3@3@3@3@3@3@3@3@&$:$%$F.",
"- ~+~+~+~+<$[$}$|$1$2$3$4$5$6$7$8$9$3@3@3@s@s@s@s@s@s@3@3@3@3@3@3@3@3@3@3@3@3@3@3@3@3@3@3@3@0$T#a$b$c$3@3@3@]$]$]$d$e$f$",
"9 =.~+~+9#0#+#g$h$i$^.c#j$k$l$m$n$o$p$3@3@3@s@s@s@s@3@3@3@3@3@3@3@q$r$s$t$u$3@3@3@3@3@o$v$w$T#V#x$I#C#y$z$%$&$]$~+A$B$C$",
") ; D$E$F$$#P._ %+s._ # o.Q#G$H$I$J$K$L$M$V#N$O$P$C#'$A#Q$R$S$T$U$Q#U#V$U#Q#U#Q#Q#H$W$J$9$o+X$N#Y$Z$K$C#> ) `$H. %.%C@# ",
"> $@I+i#+%( # -#G@@ G+@%'#-## _ n@# #%K$$%M#L$L$C#C#C#P$%%&%*%=%Q#-%;%T#>%N$0$,%'%Q#T#)%N#$@!%!@K$o+x+> > > %@Z@~%k## S+",
"> > o+> s+e+y+o+,.!%o+s+]@o+F+# F+Q+'#F+n@,%M$M$M$K$C#C#P$> s+$@y+K$L$Z$L$P$x$P$o$T#Q+F+J@G@n@@%{%{%{%e+> > o+> o+*@,+Z@",
"} 6 o+Z@]%o+> > o+^%q > > > z+{@s+$@,.,.E.8@= F.1 H ;.v > ,.E+*@> > > /%, > > > $@,.$@s+,.,.,.(%:#F.F.-.p ' > p+E+{@> > ",
"~+_%-@@ # ~%:%r o }.] 4 > q G C > > > ; c@8 1 1 ^ ^ ~+<%[%}%_ @%|%1%-.r 9 G > 5 G , > > > , p t+T 2%t+  ~+d.3%'+_ Q+4%5%",
"H c@6%7%1+f+`$-.i 6 } 8%) = ^ r F c@v 7 :#* C C c@W s F u 9%0%a%b%c%F ! ' D ) 7 ^ - d%}.3#p :#D , > o S G i 6@e%0%n#f%c%",
"g%h.w@h%i%i%& 1 ;.S 8 | p 8 7 ~ E :#H ) =@h%j%~@g@) k%l%w@m%n%o%p%{.;.~ a 9 q%a r i E }.A ; ) g.h%4 h%4 z+r%s%i%h%&.t%F.",
"# %+u%v%B@w%x%<@8 - 1 }.  }.6 (@) > f.h%y%z%.%A%B%C%@ D%y.E%.%F%G%H%I%] {.U 8 {.J%(@q > ) e@K%L%M%N%O%P%'#R.Q%R%S%_.T%U%",
"V%W%x.X%Y%-#Z%C.`%v#) ) F.8  &9+.&+&@&#&].B.$&M.7.R.%&&&S.8.*&^#N.)+=&-&, > ~ { / 9+;&>&,&'&)&R.!&*#R.7.Q.~&p#{&]&A.k#R.",
"^&~+/&(&_&^%!@:&<&Z@> 4 f%[&}&|&|&E+1&P+/+2&3&4&5&<@{+~+6&H.7&, ,.8&9&0&> C `$a&b&|&|&9&`.Z@0%c&d&e&f&<@g&  r#<@h&4 a+Z@",
"{ |#~+~+i&j&c@1  &n+> > > > > > *@r+k&o+> > , B W u+  {.^ ~+~+a ~ S <%l&) > > > > > o+E+r+$@> > ) ; 7 }.^ =.8 ~+~+V S ~ ",
"' , - 8 0 m&n&M Q.o&s+> > > o+E+@%S+@%@%%@..o * ~ = } ) F { - p&q&r&s&d z+> > > > P+#%z@G@F+}#s+' t&:#U c@(@H { _@6@r&u&"};
